<svg width="16" height="16" viewBox="0 0 16 16" fill="none" xmlns="http://www.w3.org/2000/svg">
<path d="M14.6666 8.00004H13.0133C12.7219 7.99942 12.4384 8.09424 12.206 8.27002C11.9736 8.44579 11.8053 8.69284 11.7266 8.97337L10.1599 14.5467C10.1498 14.5813 10.1288 14.6117 10.0999 14.6334C10.0711 14.655 10.036 14.6667 9.99992 14.6667C9.96386 14.6667 9.92877 14.655 9.89992 14.6334C9.87107 14.6117 9.85002 14.5813 9.83992 14.5467L6.15992 1.45337C6.14982 1.41875 6.12877 1.38834 6.09992 1.36671C6.07107 1.34507 6.03598 1.33337 5.99992 1.33337C5.96386 1.33337 5.92877 1.34507 5.89992 1.36671C5.87107 1.38834 5.85002 1.41875 5.83992 1.45337L4.27325 7.02671C4.1949 7.30614 4.02751 7.55238 3.79649 7.72805C3.56548 7.90371 3.28347 7.99921 2.99325 8.00004H1.33325" stroke="#C084FC" stroke-width="1.33333" stroke-linecap="round" stroke-linejoin="round"/>
</svg>
