<svg width="16" height="16" viewBox="0 0 16 16" fill="none" xmlns="http://www.w3.org/2000/svg">
<path d="M8.66701 1.33317L9.31805 1.4764L8.98472 2.98291C10.1245 2.5415 11.4152 2.55556 12.572 3.07275C14.2511 3.82368 15.3326 5.4913 15.3337 7.33057L15.3246 7.82015C15.2227 10.2629 14.284 12.6023 12.6579 14.4412L12.654 14.4425L12.6553 14.4439C11.8364 15.36 10.4975 15.5985 9.4131 15.0207V15.0194C8.53053 14.5485 7.47015 14.5485 6.58758 15.0194V15.0207C5.5032 15.5984 4.16428 15.36 3.34539 14.4439L3.34149 14.4399C1.61356 12.4758 0.662523 9.94792 0.667008 7.33187C0.667546 5.49209 1.74917 3.82386 3.42873 3.07275C4.69456 2.50677 6.12038 2.54422 7.33367 3.12093V1.99984C7.33367 1.26371 7.93088 0.666513 8.66701 0.666504V1.33317Z" fill="#6B7280"/>
</svg>
