<svg width="16" height="16" viewBox="0 0 16 16" fill="none" xmlns="http://www.w3.org/2000/svg">
<g clip-path="url(#clip0_89_15350)">
<path d="M10.6667 5.3335V8.66684C10.6667 9.19727 10.8774 9.70598 11.2524 10.081C11.6275 10.4561 12.1362 10.6668 12.6667 10.6668C13.1971 10.6668 13.7058 10.4561 14.0809 10.081C14.4559 9.70598 14.6667 9.19727 14.6667 8.66684V8.00017C14.6667 6.49837 14.1596 5.04057 13.2276 3.86295C12.2956 2.68533 10.9933 1.85688 9.53167 1.51184C8.07005 1.1668 6.53474 1.32537 5.1745 1.96187C3.81425 2.59837 2.70876 3.6755 2.03714 5.01874C1.36552 6.36199 1.16711 7.89266 1.47405 9.36276C1.781 10.8329 2.57533 12.1562 3.72834 13.1185C4.88135 14.0808 6.32548 14.6256 7.82677 14.6646C9.32806 14.7036 10.7986 14.2346 12 13.3335M10.6667 8.00017C10.6667 9.47293 9.47275 10.6668 7.99999 10.6668C6.52723 10.6668 5.33332 9.47293 5.33332 8.00017C5.33332 6.52741 6.52723 5.3335 7.99999 5.3335C9.47275 5.3335 10.6667 6.52741 10.6667 8.00017Z" stroke="white" stroke-width="1.33333" stroke-linecap="round" stroke-linejoin="round"/>
</g>
<defs>
<clipPath id="clip0_89_15350">
<rect width="16" height="16" fill="white"/>
</clipPath>
</defs>
</svg>
