<svg width="16" height="16" viewBox="0 0 16 16" fill="none" xmlns="http://www.w3.org/2000/svg">
<path d="M8.00004 7.99992H8.00671M10.6667 3.99992V2.66659C10.6667 2.31296 10.5262 1.97382 10.2762 1.72378C10.0261 1.47373 9.687 1.33325 9.33337 1.33325H6.66671C6.31309 1.33325 5.97395 1.47373 5.7239 1.72378C5.47385 1.97382 5.33337 2.31296 5.33337 2.66659V3.99992M14.6667 8.66659C12.6886 9.97257 10.3704 10.6688 8.00004 10.6688C5.62968 10.6688 3.31151 9.97257 1.33337 8.66659M2.66671 3.99992H13.3334C14.0698 3.99992 14.6667 4.59687 14.6667 5.33325V11.9999C14.6667 12.7363 14.0698 13.3333 13.3334 13.3333H2.66671C1.93033 13.3333 1.33337 12.7363 1.33337 11.9999V5.33325C1.33337 4.59687 1.93033 3.99992 2.66671 3.99992Z" stroke="#6B7280" stroke-width="1.33333" stroke-linecap="round" stroke-linejoin="round"/>
</svg>
