<svg width="12" height="12" viewBox="0 0 12 12" fill="none" xmlns="http://www.w3.org/2000/svg">
<path d="M8 7V8.1L8.8 8.6M8 1V3M10.5 3.75V3C10.5 2.73478 10.3946 2.48043 10.2071 2.29289C10.0196 2.10536 9.76522 2 9.5 2H2.5C2.23478 2 1.98043 2.10536 1.79289 2.29289C1.60536 2.48043 1.5 2.73478 1.5 3V10C1.5 10.2652 1.60536 10.5196 1.79289 10.7071C1.98043 10.8946 2.23478 11 2.5 11H4.25M1.5 5H4M4 1V3M11 8C11 9.65685 9.65685 11 8 11C6.34315 11 5 9.65685 5 8C5 6.34315 6.34315 5 8 5C9.65685 5 11 6.34315 11 8Z" stroke="#16FF8E" stroke-linecap="round" stroke-linejoin="round"/>
</svg>
