<svg width="16" height="16" viewBox="0 0 16 16" fill="none" xmlns="http://www.w3.org/2000/svg">
<g clip-path="url(#clip0_6_634)">
<path d="M6 6.00192C5.99964 5.88361 6.03077 5.76733 6.0902 5.66503C6.14963 5.56273 6.23522 5.47809 6.33817 5.41979C6.44112 5.36149 6.55773 5.33164 6.67603 5.33331C6.79433 5.33497 6.91006 5.36809 7.01133 5.42925L10.3427 7.42725C10.4418 7.48636 10.524 7.57022 10.581 7.6706C10.638 7.77099 10.668 7.88446 10.668 7.99992C10.668 8.11537 10.638 8.22885 10.581 8.32924C10.524 8.42962 10.4418 8.51348 10.3427 8.57259L7.01133 10.5706C6.91001 10.6318 6.79422 10.6649 6.67586 10.6665C6.55751 10.6682 6.44085 10.6383 6.33788 10.5799C6.2349 10.5215 6.14933 10.4368 6.08995 10.3344C6.03057 10.232 5.99952 10.1156 6 9.99725V6.00192Z" stroke="white" stroke-width="1.33333" stroke-linecap="round" stroke-linejoin="round"/>
<path d="M8 14.6666C11.6819 14.6666 14.6667 11.6818 14.6667 7.99992C14.6667 4.31802 11.6819 1.33325 8 1.33325C4.3181 1.33325 1.33333 4.31802 1.33333 7.99992C1.33333 11.6818 4.3181 14.6666 8 14.6666Z" stroke="white" stroke-width="1.33333" stroke-linecap="round" stroke-linejoin="round"/>
</g>
<defs>
<clipPath id="clip0_6_634">
<rect width="16" height="16" fill="white"/>
</clipPath>
</defs>
</svg>
