<svg width="16" height="16" viewBox="0 0 16 16" fill="none" xmlns="http://www.w3.org/2000/svg">
<path d="M7.33335 9.33325H14M14 9.33325L11.3334 11.9999M14 9.33325L11.3334 6.66659M10.6667 2.66659H12C12.3536 2.66659 12.6928 2.80706 12.9428 3.05711C13.1929 3.30716 13.3334 3.6463 13.3334 3.99992V4.89592M5.33335 2.66659H4.00002C3.6464 2.66659 3.30726 2.80706 3.05721 3.05711C2.80716 3.30716 2.66669 3.6463 2.66669 3.99992V13.3333C2.66669 13.6869 2.80716 14.026 3.05721 14.2761C3.30726 14.5261 3.6464 14.6666 4.00002 14.6666H12C12.2486 14.6666 12.4923 14.5972 12.7035 14.4661C12.9147 14.335 13.0851 14.1474 13.1954 13.9246M6.00002 1.33325H10C10.3682 1.33325 10.6667 1.63173 10.6667 1.99992V3.33325C10.6667 3.70144 10.3682 3.99992 10 3.99992H6.00002C5.63183 3.99992 5.33335 3.70144 5.33335 3.33325V1.99992C5.33335 1.63173 5.63183 1.33325 6.00002 1.33325Z" stroke="white" stroke-width="1.33333" stroke-linecap="round" stroke-linejoin="round"/>
</svg>
