<svg width="16" height="16" viewBox="0 0 16 16" fill="none" xmlns="http://www.w3.org/2000/svg">
<g clip-path="url(#clip0_2099_7599)">
<path d="M5.66671 5.66671V5.67337M10.6667 10.3334V10.34M8.00004 8.00004V8.00671M7.33338 11.3334V11.34M4.66671 9.33337V9.34004M8.00004 1.33337C6.6815 1.33337 5.39257 1.72437 4.29624 2.45691C3.19991 3.18945 2.34543 4.23064 1.84085 5.44882C1.33626 6.66699 1.20424 8.00744 1.46148 9.30064C1.71871 10.5938 2.35365 11.7817 3.286 12.7141C4.21835 13.6464 5.40624 14.2814 6.69944 14.5386C7.99265 14.7958 9.33309 14.6638 10.5513 14.1592C11.7694 13.6547 12.8106 12.8002 13.5432 11.7038C14.2757 10.6075 14.6667 9.31858 14.6667 8.00004C14.2034 8.14271 13.7099 8.15637 13.2394 8.03956C12.7689 7.92274 12.3391 7.67988 11.9963 7.33708C11.6535 6.99427 11.4107 6.56451 11.2939 6.094C11.1771 5.62349 11.1907 5.13003 11.3334 4.66671C10.8701 4.80937 10.3766 4.82303 9.90609 4.70622C9.43558 4.58941 9.00581 4.34654 8.66301 4.00374C8.32021 3.66094 8.07734 3.23117 7.96053 2.76066C7.84372 2.29015 7.85738 1.7967 8.00004 1.33337Z" stroke="#16FF8E" stroke-width="1.33333" stroke-linecap="round" stroke-linejoin="round"/>
</g>
<defs>
<clipPath id="clip0_2099_7599">
<rect width="16" height="16" fill="white"/>
</clipPath>
</defs>
</svg>
