<svg width="16" height="16" viewBox="0 0 16 16" fill="none" xmlns="http://www.w3.org/2000/svg">
<g clip-path="url(#clip0_6_540)">
<path d="M8.00001 13.3333V14.6666M8.00001 1.33325V2.66659M11.3333 13.3333V14.6666M11.3333 1.33325V2.66659M1.33334 7.99992H2.66668M1.33334 11.3333H2.66668M1.33334 4.66659H2.66668M13.3333 7.99992H14.6667M13.3333 11.3333H14.6667M13.3333 4.66659H14.6667M4.66668 13.3333V14.6666M4.66668 1.33325V2.66659M4.00001 2.66659H12C12.7364 2.66659 13.3333 3.26354 13.3333 3.99992V11.9999C13.3333 12.7363 12.7364 13.3333 12 13.3333H4.00001C3.26363 13.3333 2.66668 12.7363 2.66668 11.9999V3.99992C2.66668 3.26354 3.26363 2.66659 4.00001 2.66659ZM6.00001 5.33325H10C10.3682 5.33325 10.6667 5.63173 10.6667 5.99992V9.99992C10.6667 10.3681 10.3682 10.6666 10 10.6666H6.00001C5.63182 10.6666 5.33334 10.3681 5.33334 9.99992V5.99992C5.33334 5.63173 5.63182 5.33325 6.00001 5.33325Z" stroke="white" stroke-width="1.33333" stroke-linecap="round" stroke-linejoin="round"/>
</g>
<defs>
<clipPath id="clip0_6_540">
<rect width="16" height="16" fill="white"/>
</clipPath>
</defs>
</svg>
