<svg width="16" height="16" viewBox="0 0 16 16" fill="none" xmlns="http://www.w3.org/2000/svg">
<path d="M8.00013 6.00001L12.0001 10M12.0001 6.00001L8.00013 10M6.66679 3.33334C6.33551 3.33336 6.0161 3.45671 5.77079 3.67934L1.55213 7.50601C1.48327 7.5685 1.42825 7.6447 1.3906 7.72972C1.35295 7.81474 1.3335 7.90669 1.3335 7.99968C1.3335 8.09266 1.35295 8.18461 1.3906 8.26963C1.42825 8.35465 1.48327 8.43085 1.55213 8.49334L5.77079 12.3207C6.0161 12.5433 6.33551 12.6667 6.66679 12.6667H13.3335C13.6871 12.6667 14.0262 12.5262 14.2763 12.2762C14.5263 12.0261 14.6668 11.687 14.6668 11.3333V4.66668C14.6668 4.31305 14.5263 3.97392 14.2763 3.72387C14.0262 3.47382 13.6871 3.33334 13.3335 3.33334H6.66679Z" stroke="white" stroke-width="1.33333" stroke-linecap="round" stroke-linejoin="round"/>
</svg>
