<svg width="12" height="12" viewBox="0 0 12 12" fill="none" xmlns="http://www.w3.org/2000/svg">
<path d="M7 1H3C2.73478 1 2.48043 1.10536 2.29289 1.29289C2.10536 1.48043 2 1.73479 2 2V10C2 10.2652 2.10536 10.5196 2.29289 10.7071C2.48043 10.8946 2.73478 11 3 11H9C9.26522 11 9.51957 10.8946 9.70711 10.7071C9.89464 10.5196 10 10.2652 10 10V4M7 1C7.15828 0.999745 7.31504 1.0308 7.46127 1.09139C7.60749 1.15197 7.74028 1.24088 7.852 1.353L9.646 3.147C9.75842 3.25875 9.84759 3.39167 9.90835 3.53808C9.96911 3.68449 10.0003 3.84149 10 4M7 1L7 3.5C7 3.63261 7.05268 3.75979 7.14645 3.85355C7.24021 3.94732 7.36739 4 7.5 4L10 4" stroke="#6B7280" stroke-linecap="round" stroke-linejoin="round"/>
</svg>
