<svg width="16" height="16" viewBox="0 0 16 16" fill="none" xmlns="http://www.w3.org/2000/svg">
<g clip-path="url(#clip0_6_612)">
<path d="M14.6666 7.99992C14.6666 11.6818 11.6819 14.6666 7.99998 14.6666M14.6666 7.99992C14.6666 4.31802 11.6819 1.33325 7.99998 1.33325M14.6666 7.99992H1.33331M7.99998 14.6666C4.31808 14.6666 1.33331 11.6818 1.33331 7.99992M7.99998 14.6666C6.28814 12.8692 5.33331 10.4821 5.33331 7.99992C5.33331 5.51775 6.28814 3.13069 7.99998 1.33325M7.99998 14.6666C9.71182 12.8692 10.6666 10.4821 10.6666 7.99992C10.6666 5.51775 9.71182 3.13069 7.99998 1.33325M1.33331 7.99992C1.33331 4.31802 4.31808 1.33325 7.99998 1.33325" stroke="white" stroke-width="1.33333" stroke-linecap="round" stroke-linejoin="round"/>
</g>
<defs>
<clipPath id="clip0_6_612">
<rect width="16" height="16" fill="white"/>
</clipPath>
</defs>
</svg>
