<svg width="16" height="16" viewBox="0 0 16 16" fill="none" xmlns="http://www.w3.org/2000/svg">
<path d="M14.6667 6.6667V10.6667M3.99999 8.33337V10.6667C3.99999 11.1971 4.42142 11.7058 5.17156 12.0809C5.92171 12.456 6.93912 12.6667 7.99999 12.6667C9.06085 12.6667 10.0783 12.456 10.8284 12.0809C11.5786 11.7058 12 11.1971 12 10.6667V8.33337M14.28 7.28137C14.3993 7.22872 14.5006 7.14221 14.5713 7.03257C14.6419 6.92293 14.6789 6.79496 14.6775 6.66453C14.6762 6.53409 14.6366 6.40692 14.5637 6.29876C14.4908 6.1906 14.3877 6.10621 14.2673 6.05603L8.55332 3.45337C8.37961 3.37413 8.19091 3.33313 7.99999 3.33313C7.80906 3.33313 7.62036 3.37413 7.44665 3.45337L1.73332 6.05337C1.61463 6.10535 1.51366 6.19079 1.44277 6.29924C1.37187 6.4077 1.33411 6.53446 1.33411 6.66403C1.33411 6.79361 1.37187 6.92037 1.44277 7.02882C1.51366 7.13728 1.61463 7.22272 1.73332 7.2747L7.44665 9.88003C7.62036 9.95927 7.80906 10.0003 7.99999 10.0003C8.19091 10.0003 8.37961 9.95927 8.55332 9.88003L14.28 7.28137Z" stroke="#00F5FF" stroke-width="1.33333" stroke-linecap="round" stroke-linejoin="round"/>
</svg>
