<svg width="24" height="24" viewBox="0 0 24 24" fill="none" xmlns="http://www.w3.org/2000/svg">
<g clip-path="url(#clip0_2066_51304)">
<path d="M1.77148 0.25H22.2285C22.632 0.250048 23.0194 0.409988 23.3047 0.695312C23.59 0.980637 23.75 1.36798 23.75 1.77148V22.2285C23.75 22.632 23.59 23.0194 23.3047 23.3047C23.0194 23.59 22.632 23.75 22.2285 23.75H1.77148C1.36798 23.75 0.980637 23.59 0.695312 23.3047C0.409988 23.0194 0.250048 22.632 0.25 22.2285V1.77148C0.250048 1.36798 0.409988 0.980637 0.695312 0.695312C0.980637 0.409988 1.36798 0.250048 1.77148 0.25ZM16.2666 8.41992C14.7656 8.41994 13.6544 9.15894 13.04 9.85449V8.74121H9.07031V20.7051H13.1787V14.2402C13.1787 13.4667 13.4224 12.9167 13.7666 12.5615C14.1124 12.2049 14.5758 12.0265 15.0479 12.0264C15.5074 12.0264 15.8777 12.1543 16.1387 12.4561C16.4059 12.7651 16.5967 13.2994 16.5967 14.1934V20.7051H20.7031V20.4551L20.7051 13.3652C20.7051 11.5612 20.1429 10.3146 19.2861 9.52148C18.4337 8.73246 17.3198 8.41992 16.2666 8.41992ZM3.29492 20.6953H7.40332V8.7334H3.29492V20.6953ZM6.25098 3.18066C5.82754 3.00428 5.36125 2.95661 4.91113 3.04492C4.46107 3.13326 4.04704 3.35348 3.72168 3.67676C3.39654 3.99993 3.17424 4.41207 3.08301 4.86133C2.9918 5.31087 3.0363 5.77759 3.20996 6.20215C3.38359 6.62662 3.67859 6.99032 4.05859 7.24707C4.43775 7.50318 4.88431 7.64029 5.3418 7.64355V7.64453L5.34375 7.64355L5.3457 7.64453V7.64355C5.6518 7.64928 5.95598 7.59523 6.24023 7.48145C6.52581 7.3671 6.78569 7.19631 7.00391 6.97949C7.22211 6.76268 7.39457 6.50358 7.51074 6.21875C7.62678 5.93405 7.68402 5.6287 7.67969 5.32129C7.67928 4.86395 7.54363 4.4168 7.29004 4.03613C7.03575 3.65453 6.67428 3.35701 6.25098 3.18066Z" fill="#0A66C2" stroke="#0A66C2" stroke-width="0.5"/>
</g>
<defs>
<clipPath id="clip0_2066_51304">
<rect width="24" height="24" fill="white"/>
</clipPath>
</defs>
</svg>
