<svg width="20" height="24" viewBox="0 0 20 24" fill="none" xmlns="http://www.w3.org/2000/svg">
<path d="M19.0952 18.934C19.095 18.9337 19.0947 18.9334 19.0947 18.9332C18.925 18.7415 18.8441 18.3862 18.7572 18.0077C18.6705 17.6294 18.5735 17.2215 18.2631 16.9571C18.2625 16.9565 18.2617 16.956 18.2612 16.9554C18.1996 16.9016 18.1364 16.8564 18.073 16.8186C18.0092 16.7808 17.9446 16.75 17.8801 16.7257C18.3115 15.4454 18.1423 14.1704 17.7067 13.0185C17.1724 11.6045 16.2393 10.3727 15.5265 9.52996C14.7288 8.52303 13.9486 7.56729 13.9641 6.15551C13.9878 4.0009 14.2009 0.00532461 10.4115 8.74068e-06C10.2574 -0.000271042 10.0967 0.00616396 9.92918 0.0195935C5.69469 0.360649 6.8179 4.83717 6.75499 6.33597C6.67754 7.43215 6.45552 8.29612 5.70196 9.36769C4.81698 10.4208 3.57045 12.1255 2.98019 13.9002C2.70169 14.7376 2.56915 15.5911 2.69134 16.3992C2.65304 16.4336 2.61669 16.4697 2.58173 16.5066C2.32197 16.7844 2.12988 17.1207 1.91597 17.3471C1.71605 17.5469 1.4314 17.6227 1.11823 17.7348C0.805061 17.8473 0.461414 18.0129 0.252821 18.4136C0.252821 18.4136 0.252821 18.4139 0.252541 18.4139C0.252262 18.4145 0.251982 18.4153 0.251423 18.4158C0.153278 18.5991 0.121402 18.7969 0.121402 18.9975C0.121402 19.183 0.148804 19.371 0.176486 19.552C0.234087 19.9286 0.292526 20.2848 0.215073 20.526C-0.032666 21.2039 -0.0645421 21.6725 0.109938 22.0127C0.284977 22.3535 0.644282 22.5038 1.05056 22.5888C1.86312 22.7584 2.96341 22.7164 3.8305 23.1764L3.90515 23.0356L3.83133 23.1766C4.75966 23.6623 5.70084 23.8347 6.45161 23.6632C6.9963 23.539 7.43809 23.2144 7.66514 22.7153C8.25233 22.7125 8.89684 22.4635 9.92918 22.4067C10.6296 22.3502 11.5045 22.6557 12.5109 22.5997C12.5371 22.7088 12.5752 22.814 12.6272 22.9139C12.6278 22.9147 12.6283 22.9159 12.6289 22.9167C13.0189 23.6973 13.7437 24.0543 14.5163 23.9933C15.2897 23.9323 16.112 23.476 16.777 22.6845L16.6551 22.5821L16.7778 22.6834C17.4115 21.9145 18.4631 21.5959 19.1607 21.1751C19.5094 20.9647 19.7921 20.7012 19.8142 20.3184C19.8359 19.9359 19.6114 19.5073 19.0952 18.934Z" fill="#202020"/>
<path d="M19.4959 20.3001C19.4825 20.5362 19.3116 20.7116 18.9959 20.9019C18.3651 21.2826 17.2469 21.6139 16.5331 22.4793C15.9129 23.2176 15.1568 23.623 14.4911 23.6756C13.8253 23.7282 13.251 23.4518 12.9121 22.7717L12.9115 22.7703L12.9107 22.7685C12.7004 22.3685 12.7879 21.7375 12.9649 21.0717C13.1419 20.4061 13.3963 19.7223 13.4305 19.1669V19.1652C13.4662 18.4535 13.5062 17.8318 13.6256 17.352C13.7453 16.8721 13.9335 16.5476 14.2668 16.3649C14.2824 16.3565 14.2978 16.3484 14.3132 16.3408C14.351 16.9572 14.656 17.5862 15.1951 17.7221C15.7851 17.8777 16.6354 17.3713 16.9944 16.958C17.0663 16.9552 17.1362 16.9516 17.2041 16.9499C17.5193 16.9423 17.7832 16.9605 18.0533 17.1967L18.0541 17.1975L18.055 17.1981C18.2625 17.3741 18.3612 17.7064 18.4467 18.0785C18.5323 18.451 18.6005 18.8563 18.8572 19.1454L18.8575 19.1456L18.8578 19.1462C19.3511 19.6938 19.5096 20.0636 19.4959 20.3001Z" fill="#F8BF11"/>
<path d="M7.50745 22.0453L7.50717 22.047V22.0489C7.45013 22.7971 7.02847 23.2044 6.38088 23.3524C5.73385 23.5004 4.85614 23.353 3.97983 22.8944C3.97955 22.8944 3.97927 22.8941 3.97899 22.8941C3.00928 22.3802 1.85587 22.4314 1.11573 22.2767C0.745798 22.1994 0.504211 22.083 0.393483 21.8671C0.282756 21.6508 0.280239 21.2739 0.515675 20.6313L0.516793 20.6284L0.517632 20.6256C0.634232 20.2661 0.547831 19.8727 0.491348 19.5034C0.434866 19.1344 0.407184 18.7984 0.533291 18.5645L0.534409 18.5622C0.695747 18.2511 0.932301 18.1398 1.2259 18.0346C1.51977 17.9291 1.86789 17.8463 2.14275 17.5704L2.14443 17.569L2.14583 17.5676C2.4 17.2993 2.59098 16.9627 2.81439 16.7241C3.00285 16.5226 3.19159 16.3892 3.47596 16.3872C3.47931 16.3875 3.48239 16.3875 3.48575 16.3872C3.53552 16.3875 3.58836 16.3917 3.64429 16.4004C4.02177 16.4575 4.35087 16.7215 4.66796 17.1519L5.58342 18.8213L5.5837 18.8222L5.58426 18.8227C5.8278 19.3316 6.34229 19.8915 6.77821 20.4625C7.21413 21.0333 7.55135 21.6066 7.50745 22.0453Z" fill="#F8BF11"/>
<path d="M12.073 6.48241C11.9994 6.33832 11.8493 6.20123 11.5937 6.09631L11.5931 6.09603L11.5923 6.09575C11.0608 5.86801 10.8301 5.85178 10.5334 5.65873C10.0505 5.34817 9.6515 5.23934 9.31988 5.24074C9.14623 5.2413 8.99105 5.27207 8.85208 5.32019C8.44804 5.45925 8.17988 5.74938 8.01184 5.90858L8.01156 5.90886C8.01156 5.90914 8.01128 5.90914 8.01128 5.90942C7.97828 5.94075 7.93578 5.96929 7.83288 6.04483C7.72915 6.12065 7.57368 6.2348 7.34999 6.40267C7.15118 6.5518 7.08659 6.74597 7.15538 6.97343C7.22388 7.20089 7.4431 7.46333 7.84407 7.69023L7.84463 7.69079L7.84547 7.69107C8.09432 7.8374 8.26433 8.03464 8.4595 8.1916C8.55709 8.26994 8.6597 8.33989 8.78329 8.39277C8.90688 8.44565 9.05117 8.48146 9.2318 8.49209C9.65569 8.51671 9.96774 8.38941 10.2432 8.23161C10.5191 8.07409 10.7529 7.88132 11.0211 7.79431L11.0216 7.79403L11.0222 7.79375C11.5719 7.62197 11.9639 7.27587 12.0867 6.94713C12.1482 6.78262 12.1462 6.6265 12.073 6.48241Z" fill="#D6A312"/>
<path d="M10.6782 7.29424C10.2409 7.52234 9.73004 7.79897 9.18646 7.79897C8.64317 7.79897 8.21396 7.54772 7.90527 7.30291C7.75092 7.18065 7.62565 7.05894 7.53114 6.97053C7.36717 6.84102 7.38681 6.65937 7.45418 6.66473C7.56711 6.67884 7.58418 6.82761 7.65529 6.89415C7.75148 6.98424 7.87199 7.10091 8.01795 7.21674C8.30987 7.44812 8.6991 7.67335 9.18646 7.67335C9.67299 7.67335 10.2409 7.38754 10.5876 7.19296C10.784 7.08272 11.0339 6.88511 11.2379 6.73531C11.3939 6.62069 11.3883 6.48268 11.5171 6.49771C11.6459 6.51274 11.5506 6.65047 11.3702 6.80803C11.1898 6.9656 10.9075 7.17466 10.6782 7.29424Z" fill="#202020"/>
<path d="M17.375 16.6322C17.3143 16.6299 17.2545 16.6302 17.1963 16.6316C17.191 16.6319 17.1857 16.6319 17.1801 16.6319C17.3303 16.1574 16.9981 15.8074 16.1128 15.4067C15.1949 15.0027 14.4634 15.0427 14.3398 15.8625C14.332 15.9053 14.3255 15.9492 14.3208 15.9934C14.252 16.0175 14.1832 16.0477 14.1139 16.0855C13.683 16.3216 13.4475 16.7497 13.3167 17.2751C13.1861 17.8 13.1483 18.4343 13.1126 19.1474C13.1126 19.1477 13.1126 19.1477 13.1126 19.148C13.0905 19.5064 12.9428 19.9915 12.7935 20.5053C11.2897 21.5787 9.2027 22.0437 7.4305 20.8334C7.31055 20.6434 7.1727 20.4551 7.03093 20.2694C6.94034 20.1508 6.84723 20.033 6.75495 19.9166C6.9367 19.9169 7.09133 19.8869 7.21632 19.8304C7.37178 19.7596 7.48083 19.6466 7.53508 19.5011C7.64301 19.2104 7.53452 18.8002 7.18864 18.3316C6.84275 17.8632 6.25696 17.3347 5.3963 16.8065C5.3963 16.8065 5.3963 16.8065 5.3963 16.8062C4.76382 16.4126 4.41038 15.9302 4.24485 15.4065C4.07904 14.8824 4.10225 14.3159 4.23003 13.7566C4.47497 12.6831 5.10411 11.6389 5.50563 10.9837C5.61357 10.9042 5.54422 11.1314 5.09907 11.9584C4.70034 12.7144 3.95461 14.4591 4.97548 15.8211C5.00289 14.8519 5.23413 13.8635 5.62251 12.9388C6.18817 11.656 7.37123 9.43087 7.46518 7.65761C7.51383 7.69286 7.6802 7.80533 7.7543 7.84758C7.75458 7.84786 7.75458 7.84786 7.75486 7.84786C7.97184 7.97572 8.13485 8.16261 8.34596 8.33244C8.55763 8.50255 8.82187 8.64943 9.22116 8.67266C9.25946 8.6749 9.29693 8.67601 9.33356 8.67601C9.74516 8.67601 10.0662 8.54172 10.3335 8.38868C10.624 8.22249 10.8561 8.03839 11.0762 7.96677C11.0764 7.96649 11.0767 7.96649 11.077 7.96649C11.542 7.821 11.9114 7.5636 12.1216 7.26367C12.4829 8.68832 13.3228 10.7461 13.8628 11.7503C14.15 12.283 14.7209 13.415 14.9676 14.7789C15.1239 14.7741 15.2961 14.7968 15.4804 14.8441C16.1254 13.1707 14.9334 11.3686 14.3882 10.8667C14.1681 10.6529 14.1575 10.5572 14.2668 10.5617C14.8579 11.0852 15.6344 12.1375 15.9168 13.3254C16.0457 13.867 16.0732 14.4367 15.935 14.9988C16.0024 15.0268 16.0712 15.0573 16.1408 15.0903C17.1762 15.5947 17.559 16.0334 17.375 16.6322Z" fill="white"/>
<path d="M9.99617 12.1089C9.04055 12.1123 8.10769 12.541 7.31862 13.3393C6.52955 14.1375 5.92069 15.2685 5.57104 16.5856L5.6759 16.6509V16.6568C6.48322 17.1697 7.05817 17.6843 7.4135 18.1654V18.1655H7.41355C7.78916 18.6744 7.95629 19.17 7.79715 19.5986L7.7971 19.5988L7.79704 19.599C7.71647 19.8151 7.54482 19.9883 7.33213 20.0852L7.33175 20.0853L7.33142 20.0855C7.30906 20.0956 7.28518 20.1031 7.26201 20.1117C7.38923 20.2787 7.51385 20.4508 7.62867 20.6275C9.25009 21.7073 11.1363 21.3078 12.5519 20.3309C12.6901 19.8542 12.816 19.4097 12.8333 19.1318C12.8692 18.4178 12.9052 17.7711 13.0453 17.2077V17.2076C13.1866 16.6403 13.4614 16.1241 13.9795 15.8402L13.9798 15.84L13.9801 15.8398C14.0093 15.824 14.0385 15.8147 14.0677 15.8009C14.077 15.7448 14.09 15.6908 14.1057 15.6387C13.6889 14.5696 13.0901 13.6811 12.369 13.0617C11.6479 12.4424 10.8298 12.1138 9.99617 12.1089ZM14.0647 15.8122L14.0633 15.8209C14.0634 15.8199 14.0638 15.819 14.0639 15.818C14.0643 15.8161 14.0644 15.8141 14.0647 15.8122Z" fill="#E6E6E6"/>
<path d="M12.1216 4.84107C12.1239 5.12337 12.0752 5.36371 11.9681 5.60908C11.9072 5.74897 11.837 5.86648 11.7529 5.96832C11.7243 5.95461 11.6947 5.94146 11.6639 5.92887C11.5574 5.88326 11.4631 5.84577 11.3787 5.81388C11.2943 5.78198 11.2284 5.76019 11.1604 5.73669C11.2096 5.67709 11.3066 5.60687 11.3427 5.51874C11.3975 5.38584 11.4244 5.25602 11.4294 5.1013C11.4294 5.09515 11.4314 5.08983 11.4314 5.08256C11.4344 4.93427 11.4149 4.80753 11.3715 4.67771C11.3262 4.54146 11.2686 4.44353 11.1853 4.36212C11.1017 4.2807 11.0184 4.24377 10.9183 4.24041C10.9135 4.24013 10.909 4.24013 10.9043 4.24013C10.8103 4.24041 10.7287 4.27286 10.6442 4.34337C10.5556 4.41751 10.4899 4.51236 10.4351 4.64442C10.3806 4.77647 10.3537 4.90741 10.3484 5.06297C10.3476 5.06913 10.3476 5.07444 10.3476 5.0806C10.3456 5.16621 10.3512 5.24455 10.3643 5.32065C10.172 5.22468 9.92585 5.15471 9.75585 5.11414C9.74606 5.04056 9.74047 4.96474 9.73879 4.88528V4.86374C9.73572 4.58227 9.78185 4.34082 9.89006 4.09573C9.99827 3.85036 10.1322 3.6741 10.3206 3.53057C10.5094 3.38732 10.6948 3.32157 10.9143 3.31934H10.9246C11.1394 3.31934 11.3231 3.38257 11.5118 3.51938C11.7033 3.65871 11.8415 3.83274 11.9528 4.07615C12.0618 4.3134 12.1144 4.54534 12.1197 4.82037C12.1197 4.82764 12.1197 4.8338 12.1216 4.84107Z" fill="white"/>
<path d="M8.87582 5.12231C8.84758 5.13043 8.82018 5.1391 8.79306 5.14833C8.63927 5.20149 8.51716 5.26016 8.39917 5.33822C8.41063 5.25652 8.41231 5.17371 8.40336 5.0811C8.40252 5.07606 8.40252 5.07187 8.40252 5.06683C8.39022 4.94401 8.36421 4.84105 8.32087 4.73697C8.27474 4.62869 8.22301 4.55231 8.15506 4.49356C8.09355 4.4404 8.03539 4.41578 7.97108 4.41634C7.96464 4.41634 7.95793 4.41662 7.95122 4.41717C7.87908 4.42333 7.81924 4.45858 7.76248 4.52769C7.706 4.59652 7.66881 4.68213 7.64197 4.79572C7.61513 4.90903 7.60814 5.02039 7.61932 5.14825C7.61932 5.15328 7.62044 5.15748 7.62044 5.16252C7.63274 5.28646 7.65763 5.38942 7.70181 5.4935C7.7471 5.60066 7.79967 5.67704 7.86762 5.73579C7.87908 5.74558 7.89027 5.75454 7.90145 5.76237C7.83099 5.81693 7.78365 5.85562 7.72549 5.89815C7.6883 5.92529 7.64412 5.95775 7.59267 5.9958C7.48054 5.8906 7.39302 5.75854 7.31641 5.58424C7.22581 5.37832 7.17744 5.17212 7.1629 4.92871V4.92675C7.14948 4.68334 7.17325 4.47406 7.24007 4.25751C7.30718 4.04095 7.39666 3.88428 7.52668 3.75558C7.65642 3.6266 7.78728 3.56169 7.94498 3.55357C7.95729 3.55301 7.96931 3.55273 7.98133 3.55273C8.12422 3.55301 8.25172 3.60058 8.3837 3.70606C8.52686 3.82049 8.63507 3.96681 8.72567 4.17301C8.81654 4.37921 8.86492 4.58541 8.87834 4.82882V4.83078C8.88477 4.9329 8.88393 5.02915 8.87582 5.12231Z" fill="white"/>
<path d="M9.59326 5.70463C9.61135 5.76272 9.70492 5.75309 9.75897 5.78095C9.80641 5.8054 9.84456 5.85898 9.89789 5.86052C9.9488 5.86199 10.028 5.84288 10.0346 5.79236C10.0434 5.72562 9.94598 5.6832 9.88329 5.65875C9.80263 5.62728 9.69929 5.61131 9.62363 5.65341C9.60629 5.66306 9.58736 5.68568 9.59326 5.70463Z" fill="#202020"/>
<path d="M9.04056 5.70463C9.02247 5.76272 8.92891 5.75309 8.87485 5.78095C8.82741 5.8054 8.78926 5.85898 8.73593 5.86052C8.68503 5.86199 8.60581 5.84288 8.59918 5.79236C8.59044 5.72562 8.68785 5.6832 8.75053 5.65875C8.83119 5.62728 8.93453 5.61131 9.01019 5.65341C9.02753 5.66306 9.04646 5.68568 9.04056 5.70463Z" fill="#202020"/>
</svg>
