<svg width="12" height="12" viewBox="0 0 12 12" fill="none" xmlns="http://www.w3.org/2000/svg">
<g clip-path="url(#clip0_1270_10821)">
<path d="M3.5 5.50002V3.50002C3.49938 2.88004 3.72914 2.28195 4.14469 1.82185C4.56023 1.36175 5.13192 1.07247 5.74875 1.01016C6.36559 0.947853 6.98357 1.11697 7.48274 1.48467C7.9819 1.85238 8.32663 2.39244 8.45 3.00002M2.5 5.50002H9.5C10.0523 5.50002 10.5 5.94773 10.5 6.50002V10C10.5 10.5523 10.0523 11 9.5 11H2.5C1.94772 11 1.5 10.5523 1.5 10V6.50002C1.5 5.94773 1.94772 5.50002 2.5 5.50002Z" stroke="#16FF8E" stroke-linecap="round" stroke-linejoin="round"/>
</g>
<defs>
<clipPath id="clip0_1270_10821">
<rect width="12" height="12" fill="white"/>
</clipPath>
</defs>
</svg>
