<svg width="87" height="25" viewBox="0 0 87 25" fill="none" xmlns="http://www.w3.org/2000/svg">
<path d="M7.07196 19.266C5.70263 19.266 4.48929 18.9627 3.43196 18.356C2.37463 17.732 1.53396 16.9 0.909961 15.86C0.303294 14.8027 -3.89889e-05 13.624 -3.89889e-05 12.324C-3.89889e-05 11.024 0.303294 9.85401 0.909961 8.81401C1.53396 7.75668 2.37463 6.92468 3.43196 6.31801C4.48929 5.69401 5.70263 5.38201 7.07196 5.38201C8.42396 5.38201 9.62863 5.69401 10.686 6.31801C11.7433 6.92468 12.5753 7.74801 13.182 8.78801C13.806 9.82801 14.118 11.0067 14.118 12.324C14.118 13.624 13.806 14.8027 13.182 15.86C12.5753 16.9 11.7433 17.732 10.686 18.356C9.62863 18.9627 8.42396 19.266 7.07196 19.266ZM7.07196 16.718C7.88663 16.718 8.59729 16.5273 9.20396 16.146C9.81063 15.7473 10.2786 15.2187 10.608 14.56C10.9373 13.9013 11.102 13.156 11.102 12.324C11.102 11.5093 10.9373 10.7727 10.608 10.114C10.2786 9.43801 9.81063 8.90934 9.20396 8.52801C8.59729 8.12934 7.88663 7.93001 7.07196 7.93001C6.23996 7.93001 5.52063 8.12934 4.91396 8.52801C4.32463 8.90934 3.85663 9.42934 3.50996 10.088C3.18063 10.7467 3.01596 11.492 3.01596 12.324C3.01596 13.1387 3.18063 13.884 3.50996 14.56C3.85663 15.2187 4.32463 15.7473 4.91396 16.146C5.52063 16.5273 6.23996 16.718 7.07196 16.718ZM23.2392 5.38201C24.3138 5.38201 25.2758 5.55534 26.1252 5.90201C26.9745 6.23134 27.6938 6.71668 28.2832 7.35801C28.8898 7.99934 29.3492 8.76201 29.6612 9.64601C29.9905 10.5127 30.1552 11.4747 30.1552 12.532C30.1552 13.8667 29.8778 15.0453 29.3232 16.068C28.7858 17.0733 28.0318 17.862 27.0612 18.434C26.1078 18.9887 24.9985 19.266 23.7332 19.266C23.1092 19.266 22.5198 19.1707 21.9652 18.98C21.4105 18.7893 20.9078 18.5207 20.4572 18.174C20.0065 17.8273 19.6425 17.42 19.3652 16.952H19.3392V24.674H16.3492V12.48C16.3492 11.0067 16.6352 9.74134 17.2072 8.68401C17.7965 7.62668 18.6112 6.81201 19.6512 6.24001C20.6912 5.66801 21.8872 5.38201 23.2392 5.38201ZM23.2392 7.93001C22.4938 7.93001 21.8265 8.12068 21.2372 8.50201C20.6478 8.86601 20.1885 9.37734 19.8592 10.036C19.5298 10.6947 19.3652 11.4573 19.3652 12.324C19.3652 13.1733 19.5298 13.936 19.8592 14.612C20.1885 15.2707 20.6478 15.7907 21.2372 16.172C21.8265 16.536 22.5025 16.718 23.2652 16.718C24.0278 16.718 24.6952 16.5273 25.2672 16.146C25.8565 15.7647 26.3158 15.2447 26.6452 14.586C26.9745 13.9273 27.1392 13.1733 27.1392 12.324C27.1392 11.4573 26.9745 10.6947 26.6452 10.036C26.3158 9.37734 25.8565 8.86601 25.2672 8.50201C24.6778 8.12068 24.0018 7.93001 23.2392 7.93001ZM36.5507 18.954C35.372 18.954 34.4447 18.616 33.7687 17.94C33.11 17.264 32.7807 16.3453 32.7807 15.184V2.36601H35.7447V15.054C35.7447 15.4527 35.866 15.782 36.1087 16.042C36.3513 16.2847 36.672 16.406 37.0707 16.406H39.8527V18.954H36.5507ZM30.4927 8.24201V5.69401H39.8787V8.24201H30.4927ZM42.1895 18.954V5.69401H45.1795V18.954H42.1895ZM43.6715 3.84801C43.1515 3.84801 42.7008 3.65734 42.3195 3.27601C41.9382 2.89468 41.7475 2.44401 41.7475 1.92401C41.7475 1.40401 41.9382 0.953342 42.3195 0.57201C42.7008 0.190676 43.1515 9.17912e-06 43.6715 9.17912e-06C44.2088 9.17912e-06 44.6595 0.190676 45.0235 0.57201C45.4048 0.953342 45.5955 1.40401 45.5955 1.92401C45.5955 2.44401 45.4048 2.89468 45.0235 3.27601C44.6595 3.65734 44.2088 3.84801 43.6715 3.84801ZM48.2657 18.954V11.024C48.2657 10.0013 48.5083 9.06534 48.9937 8.21601C49.479 7.34934 50.181 6.66468 51.0997 6.16201C52.0183 5.64201 53.119 5.38201 54.4017 5.38201C55.0257 5.38201 55.6237 5.46001 56.1957 5.61601C56.7677 5.77201 57.2963 6.02334 57.7817 6.37001C58.2843 6.69934 58.709 7.11534 59.0557 7.61801H59.0817C59.4283 7.11534 59.8443 6.69934 60.3297 6.37001C60.8323 6.02334 61.3697 5.77201 61.9417 5.61601C62.531 5.46001 63.1377 5.38201 63.7617 5.38201C65.0617 5.38201 66.1623 5.64201 67.0637 6.16201C67.9823 6.66468 68.6843 7.34934 69.1697 8.21601C69.655 9.06534 69.8977 10.0013 69.8977 11.024V18.954H66.9337V11.024C66.9337 10.452 66.7863 9.93201 66.4917 9.46401C66.2143 8.99601 65.8417 8.62334 65.3737 8.34601C64.9057 8.06868 64.3683 7.93001 63.7617 7.93001C63.1723 7.93001 62.635 8.06868 62.1497 8.34601C61.6643 8.62334 61.2743 8.99601 60.9797 9.46401C60.7023 9.93201 60.5637 10.452 60.5637 11.024V18.954H57.5997V11.024C57.5997 10.452 57.4523 9.93201 57.1577 9.46401C56.863 8.99601 56.473 8.62334 55.9877 8.34601C55.5197 8.06868 54.991 7.93001 54.4017 7.93001C53.8123 7.93001 53.275 8.06868 52.7897 8.34601C52.3217 8.62334 51.9403 8.99601 51.6457 9.46401C51.3683 9.93201 51.2297 10.452 51.2297 11.024V18.954H48.2657ZM78.3606 19.266C77.0952 19.266 76.0032 18.954 75.0846 18.33C74.1659 17.706 73.4552 16.874 72.9526 15.834C72.4672 14.7767 72.2246 13.6153 72.2246 12.35C72.2246 11.0327 72.5019 9.85401 73.0566 8.81401C73.6286 7.75668 74.4346 6.92468 75.4746 6.31801C76.5319 5.69401 77.7886 5.38201 79.2446 5.38201C80.6832 5.38201 81.9052 5.69401 82.9106 6.31801C83.9332 6.92468 84.7132 7.75668 85.2506 8.81401C85.8052 9.85401 86.0826 11.0153 86.0826 12.298V18.954H83.0926V16.484H83.0406C82.7806 16.9693 82.4426 17.4287 82.0266 17.862C81.6106 18.278 81.0992 18.616 80.4926 18.876C79.8859 19.136 79.1752 19.266 78.3606 19.266ZM79.1666 16.718C79.9466 16.718 80.6226 16.5273 81.1946 16.146C81.7839 15.7473 82.2346 15.2187 82.5466 14.56C82.8759 13.884 83.0406 13.13 83.0406 12.298C83.0406 11.466 82.8846 10.7293 82.5726 10.088C82.2606 9.42934 81.8186 8.90934 81.2466 8.52801C80.6746 8.12934 79.9899 7.93001 79.1926 7.93001C78.3606 7.93001 77.6499 8.12934 77.0606 8.52801C76.4712 8.90934 76.0206 9.42934 75.7086 10.088C75.3966 10.7467 75.2406 11.492 75.2406 12.324C75.2406 13.1387 75.3966 13.884 75.7086 14.56C76.0206 15.2187 76.4626 15.7473 77.0346 16.146C77.6239 16.5273 78.3346 16.718 79.1666 16.718Z" fill="white"/>
</svg>
