<svg width="20" height="24" viewBox="0 0 20 24" fill="none" xmlns="http://www.w3.org/2000/svg">
<path d="M19.1528 8.18242C19.0118 8.29043 16.5232 9.67537 16.5232 12.7549C16.5232 16.3168 19.6898 17.577 19.7846 17.6082C19.77 17.685 19.2816 19.3339 18.115 21.0141C17.0749 22.4927 15.9886 23.9688 14.336 23.9688C12.6835 23.9688 12.2582 23.0207 10.3504 23.0207C8.49128 23.0207 7.83025 24 6.31864 24C4.80703 24 3.7523 22.6319 2.53961 20.9517C1.13492 18.9787 0 15.9136 0 13.0045C0 8.33843 3.07183 5.86379 6.09506 5.86379C7.70145 5.86379 9.04051 6.90549 10.0491 6.90549C11.009 6.90549 12.506 5.80138 14.3336 5.80138C15.0262 5.80138 17.5148 5.86379 19.1528 8.18242ZM13.466 3.82598C14.2218 2.94029 14.7565 1.71137 14.7565 0.482448C14.7565 0.312031 14.7419 0.139214 14.7103 0C13.4806 0.0456046 12.0176 0.808881 11.1354 1.81938C10.4428 2.59706 9.79632 3.82598 9.79632 5.07171C9.79632 5.25893 9.82791 5.44614 9.84249 5.50615C9.92026 5.52055 10.0466 5.53735 10.173 5.53735C11.2763 5.53735 12.664 4.80768 13.466 3.82598Z" fill="white"/>
</svg>
