<svg width="16" height="16" viewBox="0 0 16 16" fill="none" xmlns="http://www.w3.org/2000/svg">
<g clip-path="url(#clip0_1424_7424)">
<path d="M1.99465 10.8947C2.09268 11.142 2.1145 11.4129 2.05732 11.6727L1.34732 13.866C1.32444 13.9773 1.33036 14.0925 1.3645 14.2008C1.39865 14.3091 1.4599 14.4069 1.54243 14.4849C1.62497 14.5629 1.72606 14.6185 1.83612 14.6465C1.94618 14.6744 2.06156 14.6738 2.17132 14.6447L4.44665 13.9794C4.6918 13.9307 4.94567 13.952 5.17932 14.0407C6.60291 14.7055 8.21557 14.8462 9.73275 14.4378C11.2499 14.0295 12.5742 13.0985 13.4718 11.8089C14.3694 10.5194 14.7827 8.95429 14.6389 7.38972C14.495 5.82515 13.8031 4.36167 12.6854 3.25748C11.5676 2.1533 10.0958 1.47938 8.52958 1.35462C6.96336 1.22986 5.40341 1.66227 4.12495 2.57558C2.84649 3.48888 1.93167 4.82438 1.54192 6.34644C1.15216 7.86851 1.3125 9.47932 1.99465 10.8947Z" stroke="#16FF8E" stroke-width="1.33333" stroke-linecap="round" stroke-linejoin="round"/>
</g>
<defs>
<clipPath id="clip0_1424_7424">
<rect width="16" height="16" fill="white"/>
</clipPath>
</defs>
</svg>
