<svg width="16" height="16" viewBox="0 0 16 16" fill="none" xmlns="http://www.w3.org/2000/svg">
<path d="M8.00001 2V14M12.6667 5.33333L14.6667 10.6667C14.0897 11.0994 13.3879 11.3333 12.6667 11.3333C11.9454 11.3333 11.2437 11.0994 10.6667 10.6667L12.6667 5.33333ZM12.6667 5.33333V4.66667M2.00001 4.66667H2.66668C4.52694 4.66667 6.3586 4.20875 8.00001 3.33333C9.64142 4.20875 11.4731 4.66667 13.3333 4.66667H14M3.33334 5.33333L5.33334 10.6667C4.75636 11.0994 4.05458 11.3333 3.33334 11.3333C2.61211 11.3333 1.91033 11.0994 1.33334 10.6667L3.33334 5.33333ZM3.33334 5.33333V4.66667M4.66668 14H11.3333" stroke="#6B7280" stroke-width="1.33333" stroke-linecap="round" stroke-linejoin="round"/>
</svg>
