<svg width="16" height="16" viewBox="0 0 16 16" fill="none" xmlns="http://www.w3.org/2000/svg">
<path d="M7.27568 8.72361C7.14827 8.59643 6.99643 8.49636 6.82931 8.42945L1.54264 6.30945C1.47952 6.28412 1.42565 6.24009 1.38828 6.18327C1.3509 6.12645 1.3318 6.05955 1.33354 5.99156C1.33529 5.92357 1.35778 5.85774 1.39802 5.8029C1.43826 5.74806 1.4943 5.70685 1.55864 5.68479L14.2253 1.35145C14.2844 1.33012 14.3483 1.32604 14.4096 1.33971C14.4709 1.35338 14.527 1.38423 14.5715 1.42864C14.6159 1.47305 14.6467 1.52919 14.6604 1.59049C14.674 1.65179 14.67 1.71571 14.6486 1.77479L10.3153 14.4415C10.2932 14.5058 10.252 14.5618 10.1972 14.6021C10.1424 14.6423 10.0765 14.6648 10.0085 14.6665C9.94054 14.6683 9.87364 14.6492 9.81682 14.6118C9.76 14.5744 9.71597 14.5206 9.69064 14.4575L7.57064 9.16945C7.50343 9.00245 7.40309 8.85079 7.27568 8.72361ZM7.27568 8.72361L14.5693 1.43145" stroke="#16FF8E" stroke-width="1.33333" stroke-linecap="round" stroke-linejoin="round"/>
</svg>
