<svg width="16" height="16" viewBox="0 0 16 16" fill="none" xmlns="http://www.w3.org/2000/svg">
<path d="M6.44732 2.75735C6.48406 2.37091 6.66354 2.01205 6.95072 1.75087C7.2379 1.4897 7.61214 1.34497 8.00032 1.34497C8.3885 1.34497 8.76274 1.4897 9.04992 1.75087C9.3371 2.01205 9.51659 2.37091 9.55332 2.75735C9.5754 3.00699 9.6573 3.24763 9.79208 3.45891C9.92686 3.67019 10.1106 3.84589 10.3276 3.97114C10.5447 4.09638 10.7888 4.16749 11.0391 4.17843C11.2895 4.18938 11.5388 4.13984 11.766 4.03402C12.1187 3.87387 12.5184 3.8507 12.8873 3.96901C13.2562 4.08732 13.5679 4.33865 13.7617 4.67409C13.9555 5.00953 14.0175 5.40507 13.9358 5.78373C13.854 6.1624 13.6343 6.4971 13.3193 6.72269C13.1142 6.86658 12.9468 7.05776 12.8313 7.28004C12.7157 7.50231 12.6554 7.74916 12.6554 7.99969C12.6554 8.25022 12.7157 8.49706 12.8313 8.71934C12.9468 8.94161 13.1142 9.13279 13.3193 9.27669C13.6343 9.50228 13.854 9.83697 13.9358 10.2156C14.0175 10.5943 13.9555 10.9898 13.7617 11.3253C13.5679 11.6607 13.2562 11.9121 12.8873 12.0304C12.5184 12.1487 12.1187 12.1255 11.766 11.9654C11.5388 11.8595 11.2895 11.81 11.0391 11.8209C10.7888 11.8319 10.5447 11.903 10.3276 12.0282C10.1106 12.1535 9.92686 12.3292 9.79208 12.5405C9.6573 12.7517 9.5754 12.9924 9.55332 13.242C9.51659 13.6285 9.3371 13.9873 9.04992 14.2485C8.76274 14.5097 8.3885 14.6544 8.00032 14.6544C7.61214 14.6544 7.2379 14.5097 6.95072 14.2485C6.66354 13.9873 6.48406 13.6285 6.44732 13.242C6.42529 12.9923 6.34339 12.7516 6.20857 12.5402C6.07375 12.3288 5.88997 12.1531 5.67281 12.0278C5.45565 11.9026 5.2115 11.8315 4.96104 11.8206C4.71058 11.8097 4.46119 11.8594 4.23399 11.9654C3.88125 12.1255 3.48154 12.1487 3.11266 12.0304C2.74377 11.9121 2.4321 11.6607 2.23831 11.3253C2.04452 10.9898 1.98247 10.5943 2.06423 10.2156C2.14599 9.83697 2.36572 9.50228 2.68066 9.27669C2.88574 9.13279 3.05314 8.94161 3.16872 8.71934C3.28429 8.49706 3.34463 8.25022 3.34463 7.99969C3.34463 7.74916 3.28429 7.50231 3.16872 7.28004C3.05314 7.05776 2.88574 6.86658 2.68066 6.72269C2.36617 6.49698 2.14682 6.16242 2.06526 5.78401C1.98369 5.4056 2.04573 5.01038 2.23931 4.67516C2.4329 4.33994 2.7442 4.08867 3.11272 3.97018C3.48123 3.85169 3.88065 3.87444 4.23332 4.03402C4.46049 4.13984 4.70982 4.18938 4.96019 4.17843C5.21056 4.16749 5.45461 4.09638 5.67168 3.97114C5.88875 3.84589 6.07245 3.67019 6.20723 3.45891C6.34202 3.24763 6.42391 3.00699 6.44599 2.75735M9.99999 8.00002C9.99999 9.10459 9.10456 10 7.99999 10C6.89542 10 5.99999 9.10459 5.99999 8.00002C5.99999 6.89545 6.89542 6.00002 7.99999 6.00002C9.10456 6.00002 9.99999 6.89545 9.99999 8.00002Z" stroke="white" stroke-width="1.33333" stroke-linecap="round" stroke-linejoin="round"/>
</svg>
