<svg width="16" height="16" viewBox="0 0 16 16" fill="none" xmlns="http://www.w3.org/2000/svg">
<g clip-path="url(#clip0_6_577)">
<path d="M13.3333 1.33338V4.00005M14.6667 2.66672H12M7.34466 1.87605C7.37322 1.72312 7.45437 1.58499 7.57405 1.4856C7.69374 1.3862 7.84441 1.33179 7.99999 1.33179C8.15557 1.33179 8.30624 1.3862 8.42592 1.4856C8.54561 1.58499 8.62676 1.72312 8.65532 1.87605L9.35599 5.58138C9.40575 5.84482 9.53377 6.08713 9.72334 6.2767C9.91291 6.46627 10.1552 6.59429 10.4187 6.64405L14.124 7.34472C14.2769 7.37328 14.415 7.45443 14.5144 7.57412C14.6138 7.6938 14.6683 7.84447 14.6683 8.00005C14.6683 8.15563 14.6138 8.3063 14.5144 8.42599C14.415 8.54567 14.2769 8.62682 14.124 8.65538L10.4187 9.35605C10.1552 9.40581 9.91291 9.53383 9.72334 9.7234C9.53377 9.91297 9.40575 10.1553 9.35599 10.4187L8.65532 14.1241C8.62676 14.277 8.54561 14.4151 8.42592 14.5145C8.30624 14.6139 8.15557 14.6683 7.99999 14.6683C7.84441 14.6683 7.69374 14.6139 7.57405 14.5145C7.45437 14.4151 7.37322 14.277 7.34466 14.1241L6.64399 10.4187C6.59423 10.1553 6.46621 9.91297 6.27664 9.7234C6.08707 9.53383 5.84475 9.40581 5.58132 9.35605L1.87599 8.65538C1.72306 8.62682 1.58493 8.54567 1.48553 8.42599C1.38614 8.3063 1.33173 8.15563 1.33173 8.00005C1.33173 7.84447 1.38614 7.6938 1.48553 7.57412C1.58493 7.45443 1.72306 7.37328 1.87599 7.34472L5.58132 6.64405C5.84475 6.59429 6.08707 6.46627 6.27664 6.2767C6.46621 6.08713 6.59423 5.84482 6.64399 5.58138L7.34466 1.87605ZM3.99999 13.3334C3.99999 14.0698 3.40304 14.6667 2.66666 14.6667C1.93028 14.6667 1.33332 14.0698 1.33332 13.3334C1.33332 12.597 1.93028 12.0001 2.66666 12.0001C3.40304 12.0001 3.99999 12.597 3.99999 13.3334Z" stroke="white" stroke-width="1.33333" stroke-linecap="round" stroke-linejoin="round"/>
</g>
<defs>
<clipPath id="clip0_6_577">
<rect width="16" height="16" fill="white"/>
</clipPath>
</defs>
</svg>
