<svg width="49" height="49" viewBox="0 0 49 49" fill="none" xmlns="http://www.w3.org/2000/svg">
<path d="M0.705299 25.0958C0.540491 11.8419 11.1512 0.964005 24.405 0.799197C37.6588 0.634388 48.5368 11.2451 48.7016 24.4989C48.8664 37.7527 38.2557 48.6307 25.0019 48.7955C11.748 48.9603 0.870107 38.3496 0.705299 25.0958ZM46.3018 24.5288C46.1534 12.6003 36.3633 3.05069 24.4349 3.19901C12.5064 3.34734 2.95679 13.1375 3.10512 25.0659C3.25344 36.9943 13.0436 46.544 24.972 46.3957C36.9004 46.2473 46.4501 36.4572 46.3018 24.5288Z" fill="white" fill-opacity="0.2"/>
<path d="M4.67897 12.2867C4.11037 11.9462 3.92294 11.2074 4.29141 10.6565C5.81776 8.37459 7.72607 6.36891 9.93521 4.72905C12.4659 2.8505 15.3418 1.48881 18.3988 0.721711C21.4557 -0.0453834 24.6338 -0.202856 27.7516 0.258284C30.4733 0.660833 33.1025 1.5279 35.5254 2.81881C36.1103 3.13045 36.2939 3.87026 35.9534 4.43885C35.6129 5.00745 34.8774 5.18918 34.2908 4.8808C32.1396 3.74995 29.8103 2.98889 27.4005 2.63246C24.5945 2.21743 21.7342 2.35916 18.9829 3.04954C16.2317 3.73993 13.6433 4.96545 11.3657 6.65614C9.40967 8.10812 7.71569 9.87876 6.35328 11.8913C5.98175 12.4401 5.24757 12.6272 4.67897 12.2867Z" fill="#16FF8E"/>
</svg>
