<svg width="16" height="16" viewBox="0 0 16 16" fill="none" xmlns="http://www.w3.org/2000/svg">
<g clip-path="url(#clip0_1269_6959)">
<path d="M5.00016 5.33301C5.18426 5.33301 5.3335 5.18377 5.3335 4.99967C5.3335 4.81558 5.18426 4.66634 5.00016 4.66634C4.81607 4.66634 4.66683 4.81558 4.66683 4.99967C4.66683 5.18377 4.81607 5.33301 5.00016 5.33301Z" fill="white"/>
<path d="M8.39083 1.72367C8.14084 1.47361 7.80176 1.33308 7.44816 1.33301H2.66683C2.31321 1.33301 1.97407 1.47348 1.72402 1.72353C1.47397 1.97358 1.3335 2.31272 1.3335 2.66634V7.44767C1.33357 7.80127 1.4741 8.14035 1.72416 8.39034L7.52683 14.193C7.82984 14.4941 8.23966 14.6631 8.66683 14.6631C9.094 14.6631 9.50382 14.4941 9.80683 14.193L14.1935 9.80634C14.4946 9.50333 14.6636 9.09351 14.6636 8.66634C14.6636 8.23917 14.4946 7.82935 14.1935 7.52634L8.39083 1.72367Z" stroke="#6B7280" stroke-width="1.33333" stroke-linecap="round" stroke-linejoin="round"/>
<path d="M5.00016 5.33301C5.18426 5.33301 5.3335 5.18377 5.3335 4.99967C5.3335 4.81558 5.18426 4.66634 5.00016 4.66634C4.81607 4.66634 4.66683 4.81558 4.66683 4.99967C4.66683 5.18377 4.81607 5.33301 5.00016 5.33301Z" stroke="#6B7280" stroke-width="1.33333" stroke-linecap="round" stroke-linejoin="round"/>
</g>
<defs>
<clipPath id="clip0_1269_6959">
<rect width="16" height="16" fill="white"/>
</clipPath>
</defs>
</svg>
