<svg width="20" height="20" viewBox="0 0 20 20" fill="none" xmlns="http://www.w3.org/2000/svg">
<path d="M9.95333 0.000109044C4.44872 0.0257975 -5.99395e-05 4.49544 6.0569e-10 10.0001C6.0569e-10 15.523 4.47715 20.0001 10 20.0001C15.5228 20.0001 20 15.523 20 10.0001C20 7.33984 18.9401 4.7892 17.0546 2.91249C15.1691 1.03578 12.6136 -0.0123056 9.95333 0.000109044ZM14.8367 6.70844L13.07 15.2918C12.9367 15.8751 12.5867 16.0168 12.0867 15.7418L9.37 13.6751L8.06167 14.9751C7.91167 15.1251 7.78667 15.2501 7.50333 15.2501L7.695 12.3918L12.8033 7.65011C13.0283 7.45011 12.7533 7.34178 12.4533 7.53344L6.13667 11.6168L3.37 10.7251C2.77 10.5334 2.75333 10.1251 3.495 9.83344L14.3117 5.55011C14.8117 5.36678 15.2533 5.66678 14.8367 7.55011V6.70844Z" fill="#0088CC"/>
</svg>
