<svg width="12" height="12" viewBox="0 0 12 12" fill="none" xmlns="http://www.w3.org/2000/svg">
<path d="M4.5 7L2 4.5M2 4.5L4.5 2M2 4.5H7.25C7.61114 4.5 7.96873 4.57113 8.30238 4.70933C8.63603 4.84753 8.93918 5.0501 9.19454 5.30546C9.44991 5.56082 9.65247 5.86398 9.79067 6.19762C9.92887 6.53127 10 6.88887 10 7.25C10 7.61114 9.92887 7.96873 9.79067 8.30238C9.65247 8.63603 9.44991 8.93918 9.19454 9.19454C8.93918 9.44991 8.63603 9.65247 8.30238 9.79067C7.96873 9.92887 7.61114 10 7.25 10H5.5" stroke="#16FF8E" stroke-linecap="round" stroke-linejoin="round"/>
</svg>
