<svg width="16" height="16" viewBox="0 0 16 16" fill="none" xmlns="http://www.w3.org/2000/svg">
<path d="M5.33333 10H4.66667C3.95942 10 3.28115 10.281 2.78105 10.781C2.28095 11.2811 2 11.9594 2 12.6667V14M10.7007 8.41067C10.7447 8.27556 10.8308 8.15806 10.9463 8.07531C11.0618 7.99256 11.2008 7.9489 11.3429 7.95068C11.485 7.95247 11.6228 7.99962 11.7362 8.08524C11.8496 8.17087 11.9327 8.29049 11.9733 8.42667L12.4647 9.39467C12.5125 9.48877 12.582 9.57017 12.6674 9.63218C12.7528 9.69419 12.8517 9.73502 12.956 9.75133L14.0453 9.922C14.1856 9.92255 14.3221 9.96733 14.4355 10.05C14.5488 10.1326 14.6332 10.2489 14.6766 10.3823C14.7201 10.5157 14.7203 10.6593 14.6774 10.7929C14.6344 10.9264 14.5504 11.043 14.4373 11.126L13.656 11.9047C13.5812 11.9791 13.5251 12.0703 13.4925 12.1707C13.4598 12.2711 13.4514 12.3778 13.468 12.482L13.6407 13.5573C13.6882 13.6921 13.6911 13.8386 13.649 13.9752C13.607 14.1117 13.5221 14.2312 13.407 14.3159C13.2919 14.4006 13.1527 14.4461 13.0098 14.4456C12.8669 14.4451 12.7279 14.3988 12.6133 14.3133L11.6367 13.8133C11.5426 13.7651 11.4384 13.74 11.3327 13.74C11.227 13.74 11.1228 13.7651 11.0287 13.8133L10.052 14.3133C9.93745 14.3981 9.79878 14.4439 9.6563 14.444C9.51382 14.4442 9.37504 14.3987 9.2603 14.3142C9.14557 14.2298 9.06091 14.1108 9.01874 13.9747C8.97658 13.8386 8.97912 13.6925 9.026 13.558L9.198 12.4827C9.21461 12.3784 9.20623 12.2717 9.17354 12.1714C9.14086 12.071 9.08481 11.9798 9.01 11.9053L8.23933 11.1367C8.12244 11.0557 8.0345 10.9394 7.98837 10.8049C7.94224 10.6704 7.94034 10.5247 7.98293 10.389C8.02553 10.2533 8.11039 10.1348 8.22513 10.0508C8.33986 9.96677 8.47846 9.92164 8.62067 9.922L9.70933 9.75133C9.81362 9.73502 9.91254 9.69419 9.99796 9.63218C10.0834 9.57017 10.1529 9.48877 10.2007 9.39467L10.7007 8.41067ZM9.33333 4.66667C9.33333 6.13943 8.13943 7.33333 6.66667 7.33333C5.19391 7.33333 4 6.13943 4 4.66667C4 3.19391 5.19391 2 6.66667 2C8.13943 2 9.33333 3.19391 9.33333 4.66667Z" stroke="#16FF8E" stroke-width="1.33333" stroke-linecap="round" stroke-linejoin="round"/>
</svg>
