<svg width="16" height="16" viewBox="0 0 16 16" fill="none" xmlns="http://www.w3.org/2000/svg">
<path d="M10.6666 14V12.6667C10.6666 11.9594 10.3857 11.2811 9.8856 10.781C9.3855 10.281 8.70722 10 7.99998 10H3.99998C3.29274 10 2.61446 10.281 2.11436 10.781C1.61426 11.2811 1.33331 11.9594 1.33331 12.6667V14M10.6666 2.08533C11.2385 2.23358 11.7449 2.56751 12.1064 3.03471C12.468 3.50191 12.6641 4.07593 12.6641 4.66667C12.6641 5.25741 12.468 5.83143 12.1064 6.29863C11.7449 6.76582 11.2385 7.09975 10.6666 7.248M14.6666 14V12.6667C14.6662 12.0758 14.4696 11.5018 14.1076 11.0349C13.7456 10.5679 13.2387 10.2344 12.6666 10.0867M8.66665 4.66667C8.66665 6.13943 7.47274 7.33333 5.99998 7.33333C4.52722 7.33333 3.33331 6.13943 3.33331 4.66667C3.33331 3.19391 4.52722 2 5.99998 2C7.47274 2 8.66665 3.19391 8.66665 4.66667Z" stroke="white" stroke-width="1.33333" stroke-linecap="round" stroke-linejoin="round"/>
</svg>
