<svg width="16" height="16" viewBox="0 0 16 16" fill="none" xmlns="http://www.w3.org/2000/svg">
<path d="M2.6665 9.33334C2.54034 9.33377 2.41665 9.2984 2.3098 9.23133C2.20295 9.16426 2.11732 9.06824 2.06287 8.95444C2.00841 8.84065 1.98736 8.71373 2.00217 8.58845C2.01697 8.46316 2.06702 8.34465 2.1465 8.24667L8.7465 1.44667C8.79601 1.38953 8.86347 1.35091 8.93782 1.33716C9.01217 1.32341 9.08898 1.33535 9.15565 1.37101C9.22232 1.40667 9.27489 1.46394 9.30472 1.53341C9.33456 1.60289 9.33988 1.68044 9.31983 1.75334L8.03983 5.76667C8.00209 5.86769 7.98941 5.97635 8.00289 6.08334C8.01637 6.19034 8.05561 6.29246 8.11723 6.38096C8.17885 6.46946 8.26101 6.54168 8.35668 6.59145C8.45235 6.64121 8.55866 6.66702 8.6665 6.66667H13.3332C13.4593 6.66624 13.583 6.70162 13.6899 6.76869C13.7967 6.83576 13.8823 6.93177 13.9368 7.04557C13.9913 7.15937 14.0123 7.28628 13.9975 7.41157C13.9827 7.53685 13.9326 7.65537 13.8532 7.75334L7.25317 14.5533C7.20366 14.6105 7.13619 14.6491 7.06184 14.6629C6.9875 14.6766 6.91068 14.6647 6.84401 14.629C6.77734 14.5933 6.72478 14.5361 6.69494 14.4666C6.66511 14.3971 6.65978 14.3196 6.67983 14.2467L7.95983 10.2333C7.99758 10.1323 8.01025 10.0237 7.99677 9.91667C7.98329 9.80968 7.94406 9.70755 7.88244 9.61906C7.82082 9.53056 7.73865 9.45833 7.64298 9.40857C7.54731 9.3588 7.441 9.33299 7.33317 9.33334H2.6665Z" stroke="#16FF8E" stroke-linecap="round" stroke-linejoin="round"/>
</svg>
