<svg width="16" height="16" viewBox="0 0 16 16" fill="none" xmlns="http://www.w3.org/2000/svg">
<path d="M6.85619 11.1336C6.41331 11.1915 5.82806 10.7598 5.84144 10.1431C5.85424 9.55337 6.25161 9.12966 6.88889 9.12396C7.40022 9.11939 7.86992 9.60982 7.86083 10.1128C7.85008 10.7081 7.43133 11.1336 6.85619 11.1336ZM11.4668 8.04223C11.4623 7.45577 11.0871 7.04643 10.4796 7.02175C9.95126 7.00028 9.52378 7.39596 9.4632 7.91116C9.39216 8.51529 9.83418 9.02025 10.4305 9.03987C10.9834 9.06531 11.4711 8.61356 11.4668 8.04223ZM6.84611 4.93894C6.41827 4.93929 5.84019 5.28924 5.83385 5.94348C5.82873 6.47296 6.23459 6.9518 6.85552 6.95907C7.41462 6.96563 7.84112 6.52336 7.84128 5.94422C7.8839 5.41673 7.36873 4.93852 6.84611 4.93894ZM5.65405 9.06131C6.22246 9.04428 6.63533 8.64847 6.65369 8.04851C6.67024 7.50783 6.19552 7.03708 5.65245 7.03219C5.09926 7.02716 4.64979 7.47715 4.64963 8.03606C4.60777 8.60399 5.10742 9.07766 5.65405 9.06131ZM8.2447 5.94844C8.26822 6.53171 8.61805 6.92172 9.22403 6.94991C9.85248 6.97916 10.2475 6.44191 10.2589 5.95641C10.2705 5.46351 9.81757 4.90259 9.24342 4.94668C8.74617 4.89084 8.22208 5.38784 8.2447 5.94844ZM9.25728 9.1255C8.65018 9.13974 8.26771 9.52604 8.25392 10.1266C8.24022 10.7239 8.75254 11.1403 9.27561 11.1407C9.79168 11.1412 10.3118 10.637 10.2473 10.1457C10.3092 9.64336 9.876 9.111 9.25728 9.1255ZM4.49478 5.38899C4.16784 5.37913 3.91824 5.61347 3.91046 5.93753C3.90157 6.30953 4.12297 6.56015 4.46637 6.56681C4.79347 6.57318 5.03667 6.33734 5.04435 6.0064C5.05238 5.66131 4.81869 5.39875 4.49478 5.38899ZM11.0331 5.9743C11.0366 6.28784 11.2908 6.5342 11.6153 6.53849C11.9448 6.54284 12.2164 6.28083 12.2112 5.96371C12.2058 5.6366 11.9473 5.38748 11.6146 5.38864C11.2912 5.38979 11.0295 5.65337 11.0331 5.9743ZM7.45859 3.92272C7.43894 4.22236 7.73411 4.48534 8.04291 4.48163C8.35923 4.47785 8.62793 4.21766 8.6263 3.91673C8.62445 3.57366 8.38678 3.32726 8.05529 3.32473C7.64512 3.33033 7.48096 3.58182 7.45859 3.92272ZM11.6483 9.5135C11.3337 9.50687 11.0492 9.77289 11.0337 10.0881C11.0189 10.389 11.299 10.6758 11.6208 10.6892C11.9244 10.7018 12.2061 10.4215 12.2114 10.1017C12.2164 9.79974 11.9483 9.5198 11.6483 9.5135ZM4.49613 10.6965C4.79501 10.693 5.10371 10.4122 5.07712 10.1274C5.04605 9.79504 4.8992 9.55599 4.49238 9.54521C4.15824 9.53635 3.91385 9.77075 3.91312 10.0927C3.91222 10.4598 4.1448 10.7007 4.49613 10.6965ZM8.6031 12.1742C8.60365 11.8476 8.34006 11.5903 8.01206 11.5972C7.69241 11.604 7.44294 11.854 7.44249 12.1678C7.44201 12.5172 7.67587 12.7564 8.01712 12.7557C8.34573 12.755 8.60256 12.5002 8.6031 12.1742ZM13.4163 7.52908C13.1569 7.52342 12.9106 7.75097 12.9004 8.00575C12.89 8.26918 13.127 8.52623 13.3964 8.52892C13.6194 8.53113 13.8951 8.36627 13.8871 8.04195C13.8948 7.77043 13.6785 7.53481 13.4163 7.52908ZM4.89059 3.4518C4.90176 3.71411 5.12153 3.91036 5.39081 3.89846C5.66749 3.88624 5.86259 3.66556 5.84973 3.37936C5.83728 3.10252 5.60925 2.87574 5.35325 2.88566C5.06489 2.8968 4.8768 3.127 4.89059 3.4518ZM2.70489 7.54956C2.45053 7.54803 2.19929 7.79222 2.19581 8.04438C2.19222 8.3046 2.42985 8.54553 2.69072 8.54617C2.96505 8.54681 3.17645 8.34553 3.17785 8.08223C3.17958 7.76649 2.98848 7.55129 2.70489 7.54956ZM4.8952 12.673C4.89373 12.9642 5.10662 13.1926 5.38262 13.1959C5.65565 13.1991 5.87481 12.971 5.87705 12.6814C5.87907 12.418 5.67078 12.2116 5.40054 12.2092C5.10617 12.2066 4.89657 12.3989 4.8952 12.673ZM10.7359 12.1954C10.4594 12.2006 10.2417 12.4231 10.2474 12.6946C10.2529 12.952 10.4929 13.1942 10.7434 13.1951C10.9848 13.1959 11.2296 12.9379 11.2293 12.6828C11.2291 12.4098 11.0069 12.1904 10.7359 12.1954ZM10.7076 3.86976C10.9823 3.87497 11.21 3.66643 11.2223 3.39843C11.2336 3.14918 10.9892 2.89107 10.7356 2.88451C10.4533 2.87721 10.2526 3.07555 10.247 3.36745C10.2412 3.66992 10.4195 3.86432 10.7076 3.86976ZM8.03987 1.83833C8.26278 1.83824 8.43174 1.66256 8.43043 1.43222C8.42902 1.18604 8.27977 1.02329 8.0512 1.01865C7.8143 1.01385 7.64336 1.18816 7.64493 1.43283C7.6464 1.66038 7.81981 1.83843 8.03987 1.83833ZM2.33581 11.7689C2.54614 11.7829 2.76787 11.5729 2.76873 11.3589C2.7695 11.1615 2.56745 10.9507 2.36563 10.9385C2.17849 10.9271 1.95357 11.1443 1.94963 11.3403C1.94537 11.5522 2.12816 11.7551 2.33581 11.7689ZM8.01958 14.2377C7.81849 14.2392 7.61958 14.4419 7.61616 14.6488C7.6127 14.8575 7.80461 15.0581 8.0111 15.0616C8.22989 15.0652 8.43254 14.8619 8.43001 14.6413C8.42771 14.4414 8.21907 14.2363 8.01958 14.2377ZM14.1738 4.71216C14.1662 4.51507 13.9539 4.31283 13.7525 4.31097C13.56 4.30921 13.3397 4.53078 13.342 4.72393C13.3443 4.92214 13.5617 5.14633 13.7475 5.14214C13.9518 5.13747 14.1812 4.9062 14.1738 4.71216ZM14.1754 11.3163C14.1709 11.099 13.993 10.9355 13.7631 10.9373C13.545 10.939 13.3561 11.1269 13.364 11.3341C13.3724 11.5537 13.5487 11.7237 13.7672 11.723C14.0176 11.7221 14.1805 11.5598 14.1754 11.3163ZM1.94749 4.75148C1.94339 4.98809 2.10201 5.14473 2.344 5.14303C2.58054 5.1414 2.73929 4.97897 2.73344 4.74454C2.72755 4.50716 2.57353 4.35664 2.33741 4.35747C2.10534 4.35827 1.95161 4.51363 1.94749 4.75148ZM11.3576 1.73254C11.354 1.93532 11.4958 2.03078 11.6611 2.04041C11.8337 2.05046 11.9642 1.95184 11.9721 1.75104C11.9797 1.55936 11.858 1.41721 11.6787 1.41174C11.5105 1.40659 11.3607 1.5528 11.3576 1.73254ZM0.477342 8.05119C0.471422 8.19884 0.656126 8.39967 0.803678 8.37894C0.97507 8.35488 1.10096 8.25414 1.11222 8.06582C1.12265 7.89148 0.969726 7.74675 0.789822 7.74617C0.630238 7.74566 0.48387 7.88851 0.477342 8.05119ZM11.3813 14.3412C11.3773 14.4937 11.5467 14.6582 11.7101 14.6607C11.8441 14.6627 12.0219 14.4775 12.013 14.3339C12.0012 14.1448 11.8894 14.0485 11.7467 14.0317C11.5121 14.0278 11.3863 14.1486 11.3813 14.3412ZM4.42605 1.41955C4.26246 1.38764 4.11085 1.55696 4.10781 1.7415C4.10477 1.92672 4.19881 2.03043 4.37814 2.04777C4.57286 2.06659 4.70941 1.94019 4.71577 1.70979C4.73005 1.54288 4.59401 1.45232 4.42605 1.41955ZM15.6225 8.02703C15.6104 7.84595 15.5075 7.72355 15.3224 7.69926C15.1526 7.67699 15.0164 7.83145 15.0074 8.02454C14.9972 8.23948 15.1404 8.29603 15.2812 8.33379C15.471 8.33747 15.6333 8.18975 15.6225 8.02703ZM4.46189 14.0331C4.31533 14.0179 4.10473 14.1905 4.11465 14.3404C4.12653 14.5197 4.23465 14.648 4.41693 14.6637C4.60035 14.6794 4.71737 14.5773 4.74307 14.4339C4.76438 14.2127 4.63481 14.0512 4.46189 14.0331Z" fill="#1F6FCD"/>
</svg>
