<svg width="16" height="16" viewBox="0 0 16 16" fill="none" xmlns="http://www.w3.org/2000/svg">
<path d="M2.12094 7.85072C2.11439 7.87403 2.11563 7.89751 2.11946 7.92105C2.10455 7.99309 2.11454 8.06591 2.11328 8.13834C2.1115 8.24164 2.11351 8.34499 2.12675 8.44773C2.12459 8.47407 2.12443 8.5003 2.13067 8.52622C2.13459 8.68082 2.15675 8.83355 2.18026 8.98598C2.19283 9.06756 2.19883 9.15054 2.22503 9.22968C2.22565 9.23634 2.22627 9.24299 2.22688 9.24964C2.22668 9.27698 2.23294 9.30278 2.24542 9.32708C2.24648 9.33386 2.24755 9.34064 2.24862 9.34742C2.26945 9.48918 2.31326 9.62534 2.35143 9.76278C2.38138 9.87061 2.41183 9.9785 2.45835 10.0809L2.45831 10.0808C2.5071 10.2392 2.57038 10.3918 2.64432 10.5401L2.64436 10.5401C2.6814 10.6359 2.72399 10.7289 2.78013 10.8153L2.77947 10.8145C2.7794 10.8296 2.78595 10.8413 2.79786 10.8503L2.79765 10.8531C2.81295 10.8931 2.83336 10.9302 2.85807 10.9651C2.85758 10.9678 2.85868 10.9695 2.86138 10.9702C2.88947 11.0352 2.92632 11.095 2.96834 11.1518L2.96741 11.1542L2.96955 11.1556C2.97187 11.1592 2.97419 11.1627 2.97651 11.1663L2.97627 11.166C3.03272 11.2699 3.09592 11.3694 3.17054 11.4613L3.16987 11.4608C3.17328 11.4679 3.17588 11.4756 3.1802 11.4821C3.26896 11.6162 3.36827 11.7425 3.47093 11.8658C3.5651 11.9788 3.65895 12.0928 3.76885 12.1918L3.769 12.1921C3.78456 12.2155 3.80389 12.2351 3.82736 12.2506C3.83069 12.254 3.83403 12.2573 3.83735 12.2607C3.84048 12.2639 3.84362 12.2672 3.84675 12.2705L3.84686 12.2706C3.85012 12.2737 3.85339 12.2769 3.85665 12.28L3.85687 12.2802C3.86343 12.2931 3.87365 12.3023 3.88601 12.3094L3.88615 12.3096C3.88933 12.3128 3.89251 12.3161 3.89567 12.3193L3.89579 12.3194C3.91138 12.3428 3.93259 12.3603 3.95491 12.3767L3.95581 12.3775C3.95979 12.3858 3.96439 12.3936 3.97475 12.3951L3.97763 12.3971L3.97931 12.4013L3.98367 12.4017C3.98316 12.405 3.98454 12.4068 3.98779 12.4072C3.98945 12.4092 3.99111 12.4113 3.99277 12.4134C3.99421 12.4166 3.99667 12.4181 4.00018 12.418C4.00335 12.4294 4.01005 12.4367 4.02241 12.4377L4.02189 12.4373C4.02455 12.4514 4.03608 12.459 4.04556 12.4674C4.21157 12.6153 4.38329 12.7562 4.56408 12.8858C4.57779 12.8956 4.59448 12.9026 4.59833 12.9279C4.57886 12.9279 4.56293 12.9279 4.54701 12.9279C3.11757 12.9277 1.68813 12.9276 0.25869 12.9273C0.229426 12.9273 0.200162 12.9262 0.170898 12.9255C0.170898 9.70586 0.170898 6.48617 0.170898 3.26648C1.64447 3.26663 3.11803 3.26679 4.5916 3.26691C4.59483 3.26691 4.59808 3.26639 4.60132 3.26611C4.60111 3.28612 4.58228 3.28955 4.57104 3.29936C4.5366 3.32943 4.49418 3.34942 4.46328 3.38407L4.46296 3.38429C4.32715 3.47768 4.20117 3.58303 4.08229 3.69703L4.08179 3.69743C4.07627 3.70058 4.06994 3.70284 4.06531 3.70701C3.77747 3.96613 3.51746 4.25087 3.28567 4.56101C3.22082 4.64777 3.15257 4.73267 3.10195 4.82937L3.10248 4.82891C3.06979 4.8569 3.0531 4.89643 3.03111 4.93162C2.96772 5.03305 2.90019 5.13219 2.85041 5.2416L2.84999 5.24212C2.83316 5.25777 2.82641 5.27869 2.81986 5.29971L2.82004 5.29958C2.75535 5.39762 2.70491 5.50283 2.66311 5.61236L2.66343 5.61214C2.65976 5.61706 2.65516 5.62155 2.65256 5.62699C2.52462 5.89468 2.42451 6.17287 2.34183 6.45742C2.26319 6.72802 2.20461 7.00314 2.16799 7.28258C2.14963 7.42278 2.12755 7.56287 2.12887 7.705C2.12842 7.71493 2.12798 7.72486 2.12753 7.73479C2.11872 7.75628 2.12071 7.77844 2.12347 7.80065C2.11584 7.81442 2.11724 7.82862 2.1215 7.84294C2.11871 7.84535 2.11853 7.84794 2.12094 7.85072ZM13.8581 7.6464C13.8628 7.66102 13.8643 7.67569 13.8589 7.69049C13.8789 7.76564 13.8751 7.84232 13.8735 7.91886C13.88 7.95199 13.8786 7.98525 13.8749 8.01854C13.8789 8.07018 13.879 8.12182 13.8747 8.17346C13.8747 8.18049 13.8747 8.18752 13.8747 8.19455C13.8746 8.29416 13.8834 8.39423 13.8589 8.49257C13.8641 8.50252 13.8627 8.51246 13.8589 8.52242C13.8632 8.52758 13.8629 8.53255 13.8583 8.53734C13.8583 8.54306 13.8582 8.54876 13.8582 8.55446C13.8589 8.67409 13.8381 8.79167 13.8234 8.90977C13.8181 8.95263 13.8159 8.9965 13.8001 9.03766C13.8021 9.03992 13.8021 9.04211 13.7999 9.04423C13.7994 9.04747 13.7988 9.05072 13.7983 9.05398C13.7977 9.06054 13.7971 9.0671 13.7965 9.07367C13.7786 9.19892 13.7581 9.32364 13.7209 9.44494C13.7206 9.44827 13.7202 9.45158 13.7199 9.45491C13.7175 9.47882 13.7133 9.50222 13.7005 9.52321C13.6998 9.52978 13.6991 9.53636 13.6984 9.54294C13.6662 9.69482 13.6178 9.84205 13.5695 9.98928C13.5515 10.0442 13.536 10.1001 13.5065 10.1506C13.5074 10.1538 13.5068 10.1566 13.5047 10.1591C13.4698 10.2829 13.4135 10.3981 13.3619 10.5151C13.3464 10.5502 13.3359 10.5883 13.3106 10.6187L13.3107 10.6186C13.2704 10.7207 13.2199 10.8177 13.1623 10.911C13.1625 10.9194 13.1597 10.9263 13.1521 10.9307C13.0795 11.0751 12.9973 11.2136 12.9011 11.3436L12.9016 11.3431C12.8546 11.4324 12.7926 11.5117 12.7329 11.5923C12.6414 11.7159 12.5509 11.8404 12.4426 11.9504C12.4426 11.9504 12.443 11.9502 12.443 11.9502C12.3555 12.0608 12.2593 12.1634 12.1564 12.2599L12.1558 12.2604C12.132 12.2882 12.1084 12.3163 12.0779 12.3374L12.0766 12.3382C12.0504 12.3673 12.0261 12.3984 11.991 12.418L11.9914 12.4177C11.9885 12.4282 11.9827 12.4356 11.9711 12.4368L11.971 12.4368C11.9524 12.4612 11.9325 12.4841 11.9032 12.4963L11.9035 12.4961C11.8321 12.5764 11.7451 12.639 11.6629 12.7069C11.6206 12.7418 11.5751 12.7729 11.531 12.8056C11.5299 12.8087 11.5277 12.8099 11.5245 12.8094C11.4917 12.8408 11.4564 12.8688 11.4149 12.8883L11.4155 12.8878C11.4065 12.8983 11.3974 12.9089 11.3815 12.9275C11.4167 12.9275 11.4436 12.9275 11.4704 12.9275C12.8968 12.9275 14.3233 12.9274 15.7497 12.9273C15.7708 12.9273 15.792 12.9262 15.8131 12.9256C15.8131 9.70587 15.8131 6.48618 15.8131 3.2665C14.339 3.2665 12.8649 3.2665 11.3782 3.2665C11.3941 3.2798 11.3985 3.28404 11.4035 3.28756C11.5754 3.41017 11.74 3.542 11.8979 3.68205C12.2273 3.97427 12.5199 4.30005 12.7767 4.65766C12.9791 4.93949 13.1547 5.23735 13.3045 5.55046C13.4493 5.85321 13.5675 6.166 13.6584 6.48899C13.6905 6.60304 13.7237 6.71703 13.7405 6.8348C13.7733 6.94636 13.7922 7.06053 13.8042 7.17596C13.8053 7.18306 13.8063 7.19016 13.8073 7.19726C13.8368 7.34554 13.8557 7.49505 13.8581 7.6464ZM8.07215 12.924C10.6549 12.8892 12.8445 10.7636 12.8097 8.0191C12.7771 5.43766 10.6581 3.22611 7.90973 3.26806C5.32799 3.30747 3.17909 5.42814 3.18213 8.09954C3.17739 10.7368 5.32748 12.961 8.07215 12.924ZM9.52124 7.41354C9.73705 7.44326 9.93324 7.51385 10.0867 7.67873C10.1912 7.791 10.2561 7.92423 10.303 8.06728C10.4024 8.36982 10.4098 8.67108 10.2807 8.96802C10.1707 9.22095 9.97938 9.39507 9.74057 9.52385C9.53235 9.63613 9.31079 9.71571 9.08942 9.79611C9.08346 9.79828 9.07775 9.80114 9.06388 9.80717C9.10496 10.0994 9.19628 10.3806 9.26855 10.6729C9.09523 10.7313 8.91839 10.7676 8.73688 10.8086C8.654 10.5282 8.59699 10.2464 8.51691 9.96526C8.37419 9.96772 8.24656 10.0231 8.10798 10.05C8.1609 10.3437 8.25746 10.6209 8.31223 10.9144C8.14321 10.9703 7.96584 10.9865 7.79237 11.0486C7.70063 10.7641 7.64274 10.4745 7.56851 10.1798C7.21476 10.2499 6.86666 10.3378 6.51427 10.4344C6.47783 10.2165 6.47815 10.0001 6.45481 9.78488C6.48779 9.75158 6.53108 9.74756 6.57124 9.73899C6.63644 9.72508 6.70271 9.71626 6.76811 9.70321C6.95414 9.66609 7.0167 9.57214 6.98039 9.3855C6.94897 9.22404 6.89309 9.06906 6.85373 8.9097C6.79604 8.67614 6.73875 8.44247 6.6806 8.20902C6.63229 8.01506 6.5828 7.82139 6.5342 7.62751C6.49271 7.46196 6.45483 7.29543 6.40962 7.13091C6.36827 6.98046 6.28367 6.92047 6.13285 6.92259C6.07536 6.9234 6.02023 6.93827 5.96519 6.95257C5.86809 6.9778 5.77524 7.01813 5.67104 7.03662C5.60342 6.85467 5.5759 6.66236 5.51427 6.46959C5.86667 6.37302 6.22091 6.29083 6.57773 6.20207C6.50507 5.91256 6.43402 5.62947 6.36215 5.34313C6.53722 5.28795 6.71499 5.25678 6.89274 5.20414C6.96873 5.48271 7.0374 5.76105 7.10221 6.04623C7.23531 6.01184 7.3647 5.98376 7.4981 5.94026C7.46559 5.65624 7.36071 5.38941 7.30888 5.10491C7.48134 5.05406 7.65267 5.00868 7.82982 4.97244C7.9235 5.25555 7.97488 5.54411 8.05779 5.82677C8.16073 5.81866 8.26086 5.81055 8.36102 5.80295C8.56944 5.78714 8.77696 5.78457 8.98118 5.84052C9.1924 5.89839 9.35066 6.02372 9.46207 6.21119C9.56435 6.3833 9.63448 6.56486 9.63048 6.76864C9.62609 6.99246 9.54066 7.18186 9.38423 7.34047C9.37168 7.35319 9.35942 7.36622 9.34739 7.37944C9.34554 7.38148 9.34571 7.38536 9.3434 7.39443C9.40328 7.40076 9.4625 7.40545 9.52124 7.41354ZM8.18921 9.34595C8.41616 9.2901 8.64348 9.23526 8.85446 9.13032C9.00609 9.0549 9.14277 8.96398 9.22715 8.80819C9.36292 8.55754 9.28543 8.2662 9.04276 8.13956C8.91229 8.07147 8.77063 8.0535 8.62594 8.05892C8.35748 8.06898 8.09943 8.13632 7.84214 8.20659C7.78323 8.22268 7.72482 8.24061 7.65922 8.25972C7.77734 8.6385 7.84951 9.02366 7.95447 9.40438C8.03809 9.38355 8.1136 9.36456 8.18921 9.34595ZM7.5407 7.72207C7.59823 7.70954 7.65047 7.69886 7.70237 7.68672C7.9458 7.6298 8.17945 7.5479 8.38833 7.40711C8.48308 7.34325 8.56641 7.26608 8.61664 7.16047C8.69726 6.99093 8.64723 6.83837 8.54337 6.70039C8.43963 6.56258 8.28704 6.51929 8.12225 6.51171C7.95129 6.50386 7.78549 6.53893 7.62111 6.57954C7.50786 6.60751 7.39609 6.64151 7.27598 6.67496C7.35486 7.03132 7.44217 7.37665 7.5407 7.72207Z" fill="#4CC847"/>
</svg>
