<svg width="16" height="16" viewBox="0 0 16 16" fill="none" xmlns="http://www.w3.org/2000/svg">
<g clip-path="url(#clip0_434_38648)">
<path d="M8 0C12.4186 0 16 3.58141 16 8C16 12.4186 12.4186 16 8 16C3.58141 16 0 12.4186 0 8C0 3.58141 3.58141 0 8 0Z" fill="#F0B90B"/>
<path d="M4.39677 7.99984L4.40254 10.1152L6.19998 11.1729V12.4114L3.35062 10.7402V7.38125L4.39677 7.99984ZM4.39677 5.88446V7.11715L3.34998 6.49792V5.26523L4.39677 4.646L5.44869 5.26523L4.39677 5.88446ZM6.95062 5.26523L7.99741 4.646L9.04934 5.26523L7.99741 5.88446L6.95062 5.26523Z" fill="white"/>
<path d="M5.1532 9.67676V8.4383L6.19999 9.05753V10.2902L5.1532 9.67676ZM6.95063 11.6165L7.99743 12.2357L9.04935 11.6165V12.8492L7.99743 13.4684L6.95063 12.8492V11.6165ZM10.5506 5.26523L11.5974 4.646L12.6494 5.26523V6.49792L11.5974 7.11715V5.88446L10.5506 5.26523ZM11.5974 10.1152L11.6032 7.99984L12.65 7.38061V10.7396L9.80063 12.4107V11.1723L11.5974 10.1152Z" fill="white"/>
<path d="M10.8468 9.67694L9.79999 10.2904V9.05771L10.8468 8.43848V9.67694Z" fill="white"/>
<path d="M10.8468 6.32292L10.8526 7.56138L9.04999 8.61907V10.7396L8.0032 11.353L6.9564 10.7396V8.61907L5.15384 7.56138V6.32292L6.20512 5.70369L7.99679 6.76651L9.79935 5.70369L10.8513 6.32292H10.8468ZM5.1532 4.20817L7.99743 2.53125L10.8468 4.20817L9.79999 4.8274L7.99743 3.76458L6.19999 4.8274L5.1532 4.20817Z" fill="white"/>
</g>
<defs>
<clipPath id="clip0_434_38648">
<rect width="16" height="16" fill="white"/>
</clipPath>
</defs>
</svg>
