<svg width="16" height="16" viewBox="0 0 16 16" fill="none" xmlns="http://www.w3.org/2000/svg">
<g clip-path="url(#clip0_434_38555)">
<path d="M1.38976 4.00443C1.63648 3.65992 1.86576 3.3036 2.14374 2.98088C2.64934 2.3939 3.22189 1.89087 3.8775 1.47448C4.46563 1.10098 5.08586 0.806577 5.74954 0.600721C6.78294 0.280145 7.83786 0.184817 8.91235 0.307441C9.69776 0.397073 10.4545 0.597585 11.1752 0.922321C11.6114 1.11887 12.0218 1.36171 12.424 1.62399C13.2345 2.15247 13.8837 2.84043 14.4265 3.62645C15.0062 4.466 15.383 5.39992 15.5896 6.40165C15.7347 7.10511 15.796 7.81512 15.7337 8.52978C15.6569 9.41093 15.4612 10.2605 15.0957 11.0771C14.7865 11.7678 14.4048 12.4019 13.9161 12.9747C13.438 13.5351 12.8989 14.0253 12.2794 14.4295C11.8575 14.7047 11.4177 14.9503 10.9535 15.1327C10.1767 15.4379 9.37117 15.6442 8.52829 15.6804C7.93485 15.7058 7.34477 15.6958 6.75936 15.592C6.25654 15.5027 5.76579 15.3725 5.28535 15.1921C4.81923 15.017 4.36717 14.8097 3.95066 14.5475C3.35014 14.1695 2.8088 13.7108 2.32707 13.1823C1.79034 12.5934 1.35514 11.9404 1.02214 11.2193C0.551744 10.2006 0.320416 9.12645 0.306656 8.00568C0.301472 7.58415 0.349824 7.16587 0.406016 6.74863C0.410048 6.71877 0.405952 6.68786 0.405632 6.65739C0.454784 6.62693 0.450432 6.57362 0.459296 6.52712C0.584288 5.87167 0.795104 5.24523 1.08067 4.64213C1.18186 4.42856 1.32147 4.23368 1.38976 4.00443ZM10.405 8.14427C10.6142 8.03311 10.813 7.96939 10.9701 7.82907C11.5755 7.28831 11.7368 6.01554 10.7542 5.40242C10.4481 5.21141 10.1215 5.06984 9.76954 4.92539C9.82774 4.454 10.0162 4.01288 10.0774 3.5301C9.78701 3.45813 9.51494 3.36261 9.23184 3.33192C9.1161 3.78559 9.00512 4.22053 8.89027 4.67071C8.67331 4.60427 8.44992 4.61058 8.24573 4.49557C8.31939 4.03509 8.49446 3.60367 8.5423 3.14152C8.244 3.09467 7.99139 2.97851 7.70183 2.966C7.58781 3.42069 7.47747 3.86066 7.36307 4.31688C6.78886 4.22888 6.26166 4.03141 5.68243 3.92523C5.55517 4.21035 5.49882 4.51119 5.44774 4.83125C5.63642 4.87579 5.80045 4.91519 5.9648 4.9532C6.37968 5.04914 6.49334 5.27595 6.39485 5.63877C6.32477 5.89685 6.26154 6.15682 6.19702 6.4164C5.96518 7.34952 5.7352 8.28306 5.50198 9.21583C5.44944 9.42597 5.3185 9.49442 5.10525 9.46322C4.89523 9.4325 4.69702 9.33819 4.46557 9.34504C4.36522 9.66607 4.16547 9.94891 4.09475 10.3033C4.6463 10.4438 5.1799 10.5798 5.73776 10.7219C5.69578 11.2085 5.49411 11.6539 5.43453 12.144C5.71418 12.211 5.97741 12.2741 6.25194 12.3399C6.43283 11.8905 6.47456 11.4182 6.64317 10.9534C6.8464 11.0578 7.07187 11.0275 7.27075 11.159C7.16237 11.6071 7.05437 12.0535 6.94506 12.5055C7.23261 12.6084 7.51315 12.6504 7.80131 12.7221C7.91795 12.2548 8.03072 11.8028 8.13981 11.3658C8.20775 11.3309 8.25744 11.3374 8.30438 11.3474C8.756 11.4441 9.21286 11.4666 9.67002 11.4159C10.0658 11.372 10.417 11.2211 10.6988 10.924C11.0121 10.5936 11.1695 10.1895 11.2452 9.75487C11.307 9.40079 11.2912 9.042 11.0833 8.72859C10.9204 8.48303 10.6966 8.29563 10.405 8.14427ZM7.1401 9.9893C7.69725 10.1277 8.25379 10.2757 8.83674 10.1693C9.14762 10.1125 9.38192 9.95391 9.47626 9.64117C9.56522 9.34619 9.5135 9.07819 9.29472 8.84504C9.0672 8.60261 8.77459 8.47659 8.4729 8.37122C8.11245 8.24533 7.74704 8.13096 7.35322 8.09986C7.2023 8.71323 7.05584 9.30859 6.90611 9.91707C7.0015 9.9468 7.06986 9.97186 7.1401 9.9893ZM9.1081 7.41893C9.41619 7.37515 9.67168 7.17131 9.74675 6.89435C9.83856 6.5557 9.73597 6.25867 9.46189 6.05666C9.15091 5.82744 8.79283 5.71083 8.42285 5.62987C8.28502 5.5997 8.14944 5.51935 7.98266 5.57359C7.85008 6.11237 7.71696 6.65349 7.57949 7.21227C8.10611 7.34523 8.59104 7.49237 9.1081 7.41893Z" fill="#F39321"/>
</g>
<defs>
<clipPath id="clip0_434_38555">
<rect width="16" height="16" fill="white"/>
</clipPath>
</defs>
</svg>
