<svg width="10" height="10" viewBox="0 0 10 10" fill="none" xmlns="http://www.w3.org/2000/svg">
<g clip-path="url(#clip0_1270_51541)">
<path d="M5.00024 2.096C5.99546 2.096 6.80224 1.62679 6.80224 1.048C6.80224 0.469206 5.99546 0 5.00024 0C4.00503 0 3.19824 0.469206 3.19824 1.048C3.19824 1.62679 4.00503 2.096 5.00024 2.096Z" fill="#E6007A"/>
<path d="M5.00024 9.99834C5.99546 9.99834 6.80224 9.52914 6.80224 8.95034C6.80224 8.37155 5.99546 7.90234 5.00024 7.90234C4.00503 7.90234 3.19824 8.37155 3.19824 8.95034C3.19824 9.52914 4.00503 9.99834 5.00024 9.99834Z" fill="#E6007A"/>
<path d="M2.48767 3.55001C2.98527 2.68816 2.98156 1.75443 2.47937 1.46448C1.97717 1.17453 1.16667 1.63816 0.669066 2.50001C0.171458 3.36187 0.175174 4.2956 0.677366 4.58555C1.17956 4.8755 1.99006 4.41187 2.48767 3.55001Z" fill="#E6007A"/>
<path d="M9.32795 7.49919C9.82556 6.63733 9.82262 5.70405 9.32138 5.41465C8.82015 5.12526 8.01042 5.58933 7.51282 6.45119C7.01521 7.31304 7.01815 8.24632 7.51938 8.53572C8.02062 8.82512 8.83034 8.36104 9.32795 7.49919Z" fill="#E6007A"/>
<path d="M2.48083 8.53356C2.98302 8.24361 2.98674 7.30989 2.48913 6.44803C1.99152 5.58617 1.18102 5.12255 0.678831 5.4125C0.176639 5.70245 0.172923 6.63617 0.670531 7.49803C1.16814 8.35989 1.97864 8.82351 2.48083 8.53356Z" fill="#E6007A"/>
<path d="M9.32285 4.58437C9.82409 4.29497 9.82703 3.36169 9.32942 2.49984C8.83181 1.63798 8.02209 1.17391 7.52085 1.4633C7.01961 1.7527 7.01667 2.68598 7.51428 3.54784C8.01189 4.40969 8.82161 4.87377 9.32285 4.58437Z" fill="#E6007A"/>
</g>
<defs>
<clipPath id="clip0_1270_51541">
<rect width="10" height="10" fill="white"/>
</clipPath>
</defs>
</svg>
