<svg width="16" height="16" viewBox="0 0 16 16" fill="none" xmlns="http://www.w3.org/2000/svg">
<g clip-path="url(#clip0_434_39763)">
<path d="M7.9936 15.9552C12.3836 15.9552 15.9424 12.3964 15.9424 8.00642C15.9424 3.61642 12.3836 0.0576172 7.9936 0.0576172C3.6036 0.0576172 0.0447998 3.61642 0.0447998 8.00642C0.0447998 12.3964 3.6036 15.9552 7.9936 15.9552Z" fill="#335E9F"/>
<path d="M4.46079 12.883L5.64479 9.03656L4.35519 9.43016L4.69759 8.48296L5.88159 8.11496L7.53599 2.67176C7.57119 2.55656 7.67999 2.47656 7.80159 2.47656H9.49119C9.67679 2.47656 9.80799 2.65576 9.75679 2.83176L8.41279 7.32456L9.62559 6.98216L9.40479 7.89736L8.15359 8.27496L7.27999 11.0654H11.728C11.8624 11.0654 11.9584 11.1934 11.9232 11.3214L11.536 12.7358C11.5104 12.8222 11.4336 12.883 11.3408 12.883H4.46079Z" fill="white"/>
</g>
<defs>
<clipPath id="clip0_434_39763">
<rect width="16" height="16" fill="white"/>
</clipPath>
</defs>
</svg>
