<svg width="16" height="16" viewBox="0 0 16 16" fill="none" xmlns="http://www.w3.org/2000/svg">
<g clip-path="url(#clip0_434_39783)">
<path d="M3.93281 5.24482C4.22721 5.07202 4.61121 5.07202 4.93761 5.24482L7.24161 6.57922L8.80641 7.44962L11.1104 8.78402C11.4048 8.95682 11.7888 8.95682 12.1152 8.78402L13.9456 7.74082C14.24 7.56802 14.448 7.24802 14.448 6.89922V4.84162C14.448 4.49282 14.272 4.17602 13.9456 4.00002L12.144 2.98562C11.8496 2.81282 11.4656 2.81282 11.1392 2.98562L9.33761 4.00002C9.04321 4.17282 8.83521 4.49282 8.83521 4.84162V6.17602L7.27041 5.27682V3.94242C7.27041 3.59362 7.44641 3.27682 7.77281 3.10082L11.1072 1.18722C11.4016 1.01442 11.7856 1.01442 12.112 1.18722L15.504 3.10082C15.8304 3.27362 16.0064 3.59362 16.0064 3.94242V7.79842C16.0064 8.14722 15.8304 8.46402 15.504 8.64002L12.1088 10.5536C11.8144 10.7264 11.4304 10.7264 11.104 10.5536L8.80001 9.24802L7.23521 8.34882L4.93121 7.04322C4.63681 6.87042 4.25281 6.87042 3.92641 7.04322L2.12481 8.05762C1.83041 8.23042 1.62241 8.55042 1.62241 8.89922V10.9568C1.62241 11.3056 1.79841 11.6224 2.12481 11.7984L3.92641 12.8416C4.22081 13.0144 4.60481 13.0144 4.93121 12.8416L6.73281 11.8272C7.02721 11.6544 7.23521 11.3344 7.23521 10.9856V9.65122L8.80001 10.5504V11.8848C8.80001 12.2336 8.62401 12.5504 8.29761 12.7264L4.90241 14.64C4.60801 14.8128 4.22401 14.8128 3.89761 14.64L0.502408 12.7264C0.208008 12.5536 7.62939e-06 12.2336 7.62939e-06 11.8848V8.02882C7.62939e-06 7.68002 0.176008 7.36322 0.502408 7.18722L3.93281 5.24482Z" fill="#8247E5"/>
</g>
<defs>
<clipPath id="clip0_434_39783">
<rect width="16" height="16" fill="white"/>
</clipPath>
</defs>
</svg>
