<svg width="16" height="16" viewBox="0 0 16 16" fill="none" xmlns="http://www.w3.org/2000/svg">
<g clip-path="url(#clip0_434_38674)">
<path d="M8 0C12.416 0 16 3.5808 16 8C16 12.4192 12.416 16 8 16C3.584 16 0 12.416 0 8C0 3.584 3.5808 0 8 0Z" fill="black"/>
<path fill-rule="evenodd" clip-rule="evenodd" d="M3.6992 7.23515H11.104C11.1968 7.23515 11.2832 7.27035 11.3472 7.33755L12.5184 8.51515C12.736 8.73276 12.5824 9.10395 12.2752 9.10395H4.8704C4.7776 9.10395 4.6912 9.06875 4.6272 9.00155L3.456 7.82395C3.2384 7.60955 3.392 7.23515 3.6992 7.23515ZM3.4528 5.67355L4.624 4.49595C4.6912 4.42875 4.7776 4.39355 4.8672 4.39355H12.2688C12.576 4.39355 12.7328 4.76475 12.512 4.98235L11.344 6.15995C11.28 6.22715 11.1904 6.26235 11.1008 6.26235H3.6992C3.392 6.26235 3.2384 5.89115 3.4528 5.67355ZM12.5152 10.672L11.344 11.8528C11.28 11.9168 11.1904 11.9552 11.1008 11.9552H3.6992C3.392 11.9552 3.2384 11.584 3.4528 11.3664L4.624 10.1856C4.6912 10.1216 4.7776 10.0832 4.8672 10.0832H12.2688C12.5792 10.08 12.736 10.4512 12.5152 10.672Z" fill="url(#paint0_linear_434_38674)"/>
</g>
<defs>
<linearGradient id="paint0_linear_434_38674" x1="3.88032" y1="12.2772" x2="12.0909" y2="4.06667" gradientUnits="userSpaceOnUse">
<stop stop-color="#CB4EE8"/>
<stop offset="1" stop-color="#10F4B1"/>
</linearGradient>
<clipPath id="clip0_434_38674">
<rect width="16" height="16" fill="white"/>
</clipPath>
</defs>
</svg>
