<svg width="16" height="16" viewBox="0 0 16 16" fill="none" xmlns="http://www.w3.org/2000/svg">
<g clip-path="url(#clip0_434_38459)">
<path d="M8.00001 15.9454C12.3882 15.9454 15.9456 12.388 15.9456 7.9998C15.9456 3.61157 12.3882 0.0541992 8.00001 0.0541992C3.61178 0.0541992 0.0544128 3.61157 0.0544128 7.9998C0.0544128 12.388 3.61178 15.9454 8.00001 15.9454Z" fill="#2775CA"/>
<path d="M6.5088 13.5264C6.5088 13.712 6.3584 13.8176 6.1856 13.7632C3.7792 12.992 2.0416 10.7424 2.0416 8.08003C2.0416 5.42403 3.7792 3.17123 6.1888 2.40003C6.368 2.34563 6.512 2.45123 6.512 2.63683V3.10083C6.512 3.22563 6.4192 3.36643 6.3008 3.41123C4.3936 4.11203 3.0368 5.94243 3.0368 8.08003C3.0368 10.2208 4.3968 12.048 6.3008 12.7424C6.4192 12.7872 6.512 12.928 6.512 13.0528V13.5264H6.5088Z" fill="white"/>
<path d="M8.49599 11.8049C8.49599 11.9425 8.38399 12.0545 8.24639 12.0545H7.75039C7.61279 12.0545 7.50079 11.9425 7.50079 11.8049V11.0241C6.41599 10.8737 5.88799 10.2721 5.74399 9.44009C5.71839 9.29609 5.83039 9.17449 5.97439 9.17449H6.54079C6.65919 9.17449 6.75839 9.26089 6.78399 9.37289C6.88959 9.86249 7.17439 10.2433 8.04479 10.2433C8.68479 10.2433 9.14239 9.88169 9.14239 9.35049C9.14239 8.81609 8.87679 8.61129 7.93279 8.45769C6.54079 8.27209 5.88479 7.84969 5.88479 6.76169C5.88479 5.92329 6.52479 5.26409 7.50399 5.12969V4.35849C7.50399 4.22089 7.61599 4.10889 7.75359 4.10889H8.24959C8.38719 4.10889 8.49919 4.22089 8.49919 4.35849V5.14569C9.29919 5.28969 9.80799 5.74089 9.97759 6.49929C10.0096 6.64329 9.89759 6.77129 9.74719 6.77129H9.22559C9.11359 6.77129 9.02079 6.69769 8.98879 6.59209C8.84479 6.11529 8.50559 5.90409 7.90719 5.90409C7.24799 5.90409 6.90879 6.22089 6.90879 6.66889C6.90879 7.13929 7.10079 7.37609 8.11199 7.52009C9.47839 7.70569 10.1856 8.09609 10.1856 9.25769C10.1856 10.1377 9.52639 10.8545 8.50239 11.0145V11.8081H8.49599V11.8049Z" fill="white"/>
<path d="M9.81121 13.7599C9.63201 13.8143 9.48801 13.7087 9.48801 13.5231V13.0591C9.48801 12.9215 9.56801 12.7935 9.69921 12.7487C11.6 12.0543 12.9632 10.2207 12.9632 8.08633C12.9632 5.94553 11.6032 4.11833 9.69921 3.42393C9.58081 3.37913 9.48801 3.23833 9.48801 3.11353V2.64953C9.48801 2.46393 9.63841 2.35833 9.81121 2.41273C12.2208 3.17113 13.9584 5.42393 13.9584 8.07993C13.9584 10.7423 12.2208 12.9919 9.81121 13.7599Z" fill="white"/>
</g>
<defs>
<clipPath id="clip0_434_38459">
<rect width="16" height="16" fill="white"/>
</clipPath>
</defs>
</svg>
