<svg width="16" height="16" viewBox="0 0 16 16" fill="none" xmlns="http://www.w3.org/2000/svg">
<path fill-rule="evenodd" clip-rule="evenodd" d="M2.928 1.11044L0.0128012 7.23844C-0.0095988 7.28644 1.20158e-06 7.34084 0.0384012 7.37604L7.9168 14.9248C7.9648 14.9696 8.0352 14.9696 8.0832 14.9248L15.9616 7.37604C16 7.34084 16.0096 7.28324 15.9872 7.23844L13.072 1.11044C13.0528 1.06884 13.0112 1.04004 12.9632 1.04004H3.0368C2.992 1.04004 2.9504 1.06564 2.928 1.11044Z" fill="#50AF95"/>
<path fill-rule="evenodd" clip-rule="evenodd" d="M9.0112 7.8655C8.9536 7.8687 8.6624 7.8879 8.0096 7.8879C7.4912 7.8879 7.1232 7.8719 6.9952 7.8655C4.992 7.7759 3.4944 7.4271 3.4944 7.0111C3.4944 6.5919 4.9888 6.2463 6.9952 6.1567V7.5199C7.1264 7.5295 7.5008 7.5519 8.0192 7.5519C8.64 7.5519 8.9536 7.5263 9.008 7.5199V6.1567C11.008 6.2463 12.4992 6.5951 12.4992 7.0111C12.4992 7.4271 11.0112 7.7759 9.0112 7.8655ZM9.0112 6.0159V4.7967H11.8016V2.9375H4.2048V4.7967H6.9952V6.0159C4.7264 6.1215 3.0208 6.5695 3.0208 7.1071C3.0208 7.6447 4.7264 8.0927 6.9952 8.1983V12.1055H9.0112V8.1983C11.2736 8.0927 12.976 7.6447 12.976 7.1071C12.976 6.5695 11.2768 6.1215 9.0112 6.0159Z" fill="white"/>
</svg>
