<svg width="16" height="16" viewBox="0 0 16 16" fill="none" xmlns="http://www.w3.org/2000/svg">
<path d="M0.0991821 11.3407C0.0991821 10.8575 0.0991821 10.4415 0.0991821 10.0063C0.214382 9.94546 0.329582 9.87186 0.454382 9.81746C1.08478 9.54546 1.35678 9.08146 1.31838 8.38386C1.24478 7.08466 1.53918 5.85586 2.21118 4.73906C3.33118 2.87986 4.98238 1.80146 7.13598 1.50386C8.86078 1.26386 10.4192 1.70226 11.92 2.69106C11.4784 2.91506 11.088 3.11346 10.6976 3.31186C8.33918 2.21746 6.15678 2.41266 4.19198 4.17586C2.78718 5.43666 2.30078 7.60946 2.62398 8.72306C7.03038 6.50546 11.4304 4.28786 15.8688 2.05746C15.8688 2.52466 15.8688 2.94706 15.8688 3.40146C10.64 6.03506 5.39518 8.67506 0.0991821 11.3407Z" fill="white"/>
<path d="M5.28643 12.6911C7.49123 13.7279 9.53923 13.6095 11.456 12.1279C13.12 10.8415 13.6832 8.59507 13.3728 7.27027C8.95683 9.49427 4.55363 11.7119 0.108826 13.9487C0.108826 13.4719 0.108826 13.0623 0.108826 12.6015C5.33443 9.97107 10.5792 7.33107 15.8624 4.67188C15.8624 5.13267 15.8624 5.54868 15.8624 6.00308C15.7888 6.04468 15.696 6.10548 15.5936 6.14708C14.8992 6.42868 14.6144 6.92467 14.6624 7.68627C14.736 8.90547 14.4576 10.0639 13.8496 11.1231C12.6912 13.1327 10.9472 14.2719 8.63363 14.5215C6.98882 14.6975 5.50083 14.2655 4.07043 13.3119C4.50563 13.0879 4.89923 12.8895 5.28643 12.6911Z" fill="white"/>
</svg>
