<svg width="16" height="16" viewBox="0 0 16 16" fill="none" xmlns="http://www.w3.org/2000/svg">
<path d="M2.37112 14.9709C1.65308 14.9709 0.959381 14.9709 0.171509 14.9709C0.711189 14.4096 1.19813 13.9035 1.68472 13.3971C2.79148 12.245 3.88309 11.078 5.00828 9.94425C6.606 8.3344 9.12421 8.2607 10.8476 9.74691C10.9897 9.86944 11.1241 10.0019 11.254 10.1375C12.7769 11.7255 14.2982 13.3151 15.8667 14.9531C15.1058 14.9531 14.4049 14.9531 13.8963 14.9531C13.0295 14.1532 12.239 13.4467 11.4759 12.7116C10.9446 12.1999 10.4673 11.6322 9.93714 11.119C8.81829 10.036 7.09295 10.0873 5.9966 11.2217C4.86773 12.3896 3.74472 13.5633 2.61832 14.7337C2.53532 14.82 2.44556 14.8998 2.37112 14.9709ZM0.491189 1.55078C1.94799 3.07382 3.40546 4.59622 4.86268 6.11884C6.64088 7.97686 9.45304 7.95053 11.2409 6.06973C12.591 4.64941 13.9544 3.24173 15.3105 1.82707C15.4613 1.66973 15.6028 1.50345 15.7978 1.28662C14.9842 1.28662 14.2639 1.28662 13.8112 1.28662C13.045 1.98134 12.4117 2.52435 11.8153 3.10525C11.2195 3.6855 10.6663 4.30909 10.0846 4.90413C8.85266 6.16429 7.12408 6.1368 5.91784 4.86301C4.78306 3.6647 3.63148 2.48233 2.48293 1.28845C1.76898 1.28845 1.05858 1.28845 0.261909 1.28845C0.372853 1.41581 0.429205 1.48598 0.491189 1.55078Z" fill="white"/>
</svg>
