<svg width="16" height="16" viewBox="0 0 16 16" fill="none" xmlns="http://www.w3.org/2000/svg">
<path d="M7.96267 8.72351e-05C3.55897 0.020638 -4.79516e-05 3.59635 4.84552e-10 8.00009C4.84552e-10 12.4184 3.58172 16.0001 8 16.0001C12.4183 16.0001 16 12.4184 16 8.00009C16 5.87187 15.152 3.83136 13.6437 2.32999C12.1353 0.828624 10.0909 -0.00984444 7.96267 8.72351e-05ZM11.8693 5.36675L10.456 12.2334C10.3493 12.7001 10.0693 12.8134 9.66933 12.5934L7.496 10.9401L6.44933 11.9801C6.32933 12.1001 6.22933 12.2001 6.00267 12.2001L6.156 9.91342L10.2427 6.12009C10.4227 5.96009 10.2027 5.87342 9.96267 6.02675L4.90933 9.29342L2.696 8.58009C2.216 8.42675 2.20267 8.10009 2.796 7.86675L11.4493 4.44009C11.8493 4.29342 12.2027 4.53342 11.8693 6.04009V5.36675Z" fill="#0088CC"/>
</svg>
