<svg width="16" height="16" viewBox="0 0 16 16" fill="none" xmlns="http://www.w3.org/2000/svg">
<path d="M7.99377 3.31348C8.04032 3.31349 12.162 3.31523 13.191 3.5957C13.4735 3.67216 13.7311 3.8214 13.9381 4.02832C14.1451 4.23529 14.2943 4.49287 14.3707 4.77539C14.811 6.54765 14.7096 9.34682 14.3795 11.1875C14.303 11.4701 14.1539 11.7276 13.9469 11.9346C13.7399 12.1416 13.4824 12.2907 13.1998 12.3672C12.1654 12.6493 8.00159 12.6494 8.00159 12.6494C7.96256 12.6494 3.83294 12.648 2.80334 12.3672C2.52096 12.2907 2.26315 12.1415 2.05627 11.9346C1.8494 11.7276 1.70009 11.47 1.62366 11.1875C1.1808 9.42297 1.30295 6.62224 1.61584 4.78418C1.6923 4.5016 1.84147 4.24412 2.04846 4.03711C2.25544 3.83013 2.51298 3.68097 2.79553 3.60449C3.83035 3.32241 7.99377 3.31348 7.99377 3.31348ZM6.6676 9.98145L10.1217 7.98145L6.6676 5.98047V9.98145Z" fill="#FF0000"/>
</svg>
