<svg width="24" height="24" viewBox="0 0 24 24" fill="none" xmlns="http://www.w3.org/2000/svg">
<path d="M12 20V22M12 2V4M17 20V22M17 2V4M2 12H4M2 17H4M2 7H4M20 12H22M20 17H22M20 7H22M7 20V22M7 2V4M6 4H18C19.1046 4 20 4.89543 20 6V18C20 19.1046 19.1046 20 18 20H6C4.89543 20 4 19.1046 4 18V6C4 4.89543 4.89543 4 6 4ZM9 8H15C15.5523 8 16 8.44771 16 9V15C16 15.5523 15.5523 16 15 16H9C8.44771 16 8 15.5523 8 15V9C8 8.44771 8.44771 8 9 8Z" stroke="#F59E0B" stroke-width="1.77778" stroke-linecap="round" stroke-linejoin="round"/>
</svg>
