<svg width="186" height="48" viewBox="0 0 186 48" fill="none" xmlns="http://www.w3.org/2000/svg">
<path d="M184.88 4.07409C185.302 3.85746 185.779 4.13204 185.944 4.6871C186.108 5.24221 185.9 5.86867 185.477 6.08538C176.13 10.8818 164.466 12.0735 151.851 13.839C139.183 15.6118 125.451 17.9663 111.734 25.005C93.1893 34.521 74.6614 38.0803 56.188 39.8577C46.9543 40.7461 37.7196 41.1904 28.5091 41.7073C19.2924 42.2246 10.0941 42.8154 0.90043 43.9948C0.449357 44.0527 0.0479103 43.6179 0.00390309 43.0248C-0.0398985 42.4319 0.289986 41.9048 0.740885 41.8469C9.98295 40.6613 19.2205 40.0691 28.4396 39.5517C37.6647 39.034 46.866 38.5913 56.068 37.7059C74.4662 35.9358 92.8104 32.399 111.137 22.9947C125.074 15.8432 138.996 13.4677 151.677 11.6929C164.411 9.91084 175.792 8.73778 184.88 4.07409Z" fill="#F59E0B"/>
</svg>
