<svg width="230" height="17" viewBox="0 0 230 17" fill="none" xmlns="http://www.w3.org/2000/svg">
<g filter="url(#filter0_d_1784_148451)">
<path d="M8 8.5C8 8.22386 8.22386 8 8.5 8H38V9H8.5C8.22386 9 8 8.77614 8 8.5Z" fill="#F97316"/>
</g>
<rect x="40" y="8" width="30" height="1" fill="#F97316" fill-opacity="0.8"/>
<rect x="72" y="8" width="30" height="1" fill="#F97316" fill-opacity="0.6"/>
<rect x="104" y="8" width="30" height="1" fill="#F97316" fill-opacity="0.4"/>
<rect x="136" y="8" width="30" height="1" fill="#262626"/>
<rect x="168" y="8" width="30" height="1" fill="#262626"/>
<path d="M200 8H229.5C229.776 8 230 8.22386 230 8.5C230 8.77614 229.776 9 229.5 9H200V8Z" fill="#262626"/>
<defs>
<filter id="filter0_d_1784_148451" x="0" y="0" width="46" height="17" filterUnits="userSpaceOnUse" color-interpolation-filters="sRGB">
<feFlood flood-opacity="0" result="BackgroundImageFix"/>
<feColorMatrix in="SourceAlpha" type="matrix" values="0 0 0 0 0 0 0 0 0 0 0 0 0 0 0 0 0 0 127 0" result="hardAlpha"/>
<feOffset/>
<feGaussianBlur stdDeviation="4"/>
<feComposite in2="hardAlpha" operator="out"/>
<feColorMatrix type="matrix" values="0 0 0 0 0.976471 0 0 0 0 0.45098 0 0 0 0 0.0862745 0 0 0 0.5 0"/>
<feBlend mode="normal" in2="BackgroundImageFix" result="effect1_dropShadow_1784_148451"/>
<feBlend mode="normal" in="SourceGraphic" in2="effect1_dropShadow_1784_148451" result="shape"/>
</filter>
</defs>
</svg>
