<svg width="188" height="48" viewBox="0 0 188 48" fill="none" xmlns="http://www.w3.org/2000/svg">
<path d="M185.78 16.4088C186.338 15.8056 187.185 15.8783 187.671 16.5713C188.157 17.2643 188.098 18.3147 187.54 18.918C175.16 32.2949 164.928 40.4741 156.893 43.1457C152.848 44.4906 149.242 44.4795 146.18 42.88C143.101 41.2712 140.765 38.1568 139.116 33.7711C136.106 25.7667 132.53 21.8413 128.55 21.1062C124.502 20.3583 119.486 22.7929 113.399 29.2012C107.168 35.7618 101.619 40.1846 96.7673 42.3354C91.8932 44.4961 87.5722 44.4192 84.0238 41.6665C78.1609 37.1182 69.1947 34.7309 56.9364 34.7309C44.6399 34.7309 35.6017 36.4424 29.6849 39.721C23.2471 43.2884 13.7531 45 1.34035 45C0.600151 45 0 44.2551 0 43.3363C0 42.4175 0.600151 41.6726 1.34035 41.6726C13.6369 41.6726 22.675 39.9611 28.5918 36.6824C35.0296 33.115 44.5237 31.4034 56.9364 31.4034C69.3869 31.4034 78.9525 33.8085 85.4442 38.8445C88.0731 40.884 91.474 41.1493 95.8656 39.2025C100.28 37.2457 105.542 33.1109 111.665 26.664C117.933 20.065 123.728 16.8513 128.945 17.8148C134.231 18.7913 138.376 23.9373 141.544 32.3631C142.984 36.1923 144.894 38.598 147.22 39.8133C149.564 41.0378 152.522 41.1549 156.199 39.9326C163.607 37.4695 173.451 29.7315 185.78 16.4088Z" fill="url(#paint0_linear_1784_168704)"/>
<defs>
<linearGradient id="paint0_linear_1784_168704" x1="1.34035" y1="17.6634" x2="155.222" y2="17.6634" gradientUnits="userSpaceOnUse">
<stop stop-color="#00F5FF" stop-opacity="0.4"/>
<stop offset="1" stop-color="#00F5FF"/>
</linearGradient>
</defs>
</svg>
