<svg width="32" height="32" viewBox="0 0 32 32" fill="none" xmlns="http://www.w3.org/2000/svg">
<path d="M16 26.6666V29.3333" stroke="#C084FC" stroke-width="2.66667" stroke-linecap="round" stroke-linejoin="round"/>
<path d="M16 2.66663V5.33329" stroke="#C084FC" stroke-width="2.66667" stroke-linecap="round" stroke-linejoin="round"/>
<path d="M22.6667 26.6666V29.3333" stroke="#C084FC" stroke-width="2.66667" stroke-linecap="round" stroke-linejoin="round"/>
<path d="M22.6667 2.66663V5.33329" stroke="#C084FC" stroke-width="2.66667" stroke-linecap="round" stroke-linejoin="round"/>
<path d="M2.66666 16H5.33332" stroke="#C084FC" stroke-width="2.66667" stroke-linecap="round" stroke-linejoin="round"/>
<path d="M2.66666 22.6666H5.33332" stroke="#C084FC" stroke-width="2.66667" stroke-linecap="round" stroke-linejoin="round"/>
<path d="M2.66666 9.33337H5.33332" stroke="#C084FC" stroke-width="2.66667" stroke-linecap="round" stroke-linejoin="round"/>
<path d="M26.6667 16H29.3333" stroke="#C084FC" stroke-width="2.66667" stroke-linecap="round" stroke-linejoin="round"/>
<path d="M26.6667 22.6666H29.3333" stroke="#C084FC" stroke-width="2.66667" stroke-linecap="round" stroke-linejoin="round"/>
<path d="M26.6667 9.33337H29.3333" stroke="#C084FC" stroke-width="2.66667" stroke-linecap="round" stroke-linejoin="round"/>
<path d="M9.33334 26.6666V29.3333" stroke="#C084FC" stroke-width="2.66667" stroke-linecap="round" stroke-linejoin="round"/>
<path d="M9.33334 2.66663V5.33329" stroke="#C084FC" stroke-width="2.66667" stroke-linecap="round" stroke-linejoin="round"/>
<path d="M8.00001 5.33337H24C25.4718 5.33337 26.6667 6.52827 26.6667 8.00004V24C26.6667 25.4718 25.4718 26.6667 24 26.6667H8.00001C6.52824 26.6667 5.33334 25.4718 5.33334 24V8.00004C5.33334 6.52827 6.52824 5.33337 8.00001 5.33337V5.33337" stroke="#C084FC" stroke-width="2.66667" stroke-linecap="round" stroke-linejoin="round"/>
<path d="M12 10.6666H20C20.7359 10.6666 21.3333 11.2641 21.3333 12V20C21.3333 20.7358 20.7359 21.3333 20 21.3333H12C11.2641 21.3333 10.6667 20.7358 10.6667 20V12C10.6667 11.2641 11.2641 10.6666 12 10.6666V10.6666" stroke="#C084FC" stroke-width="2.66667" stroke-linecap="round" stroke-linejoin="round"/>
</svg>
