<svg width="54" height="54" viewBox="0 0 54 54" fill="none" xmlns="http://www.w3.org/2000/svg">
<path d="M27.0497 54C21.8122 54 17.1713 52.8202 13.1271 50.4607C9.08287 48.0337 5.8674 44.7978 3.48066 40.7528C1.16022 36.6405 0 32.0562 0 27C0 21.9438 1.16022 17.3933 3.48066 13.3483C5.8674 9.23596 9.08287 6 13.1271 3.64045C17.1713 1.21348 21.8122 0 27.0497 0C32.221 0 36.8287 1.21348 40.8729 3.64045C44.9171 6 48.0994 9.20224 50.4199 13.2472C52.8066 17.2921 54 21.8764 54 27C54 32.0562 52.8066 36.6405 50.4199 40.7528C48.0994 44.7978 44.9171 48.0337 40.8729 50.4607C36.8287 52.8202 32.221 54 27.0497 54ZM27.0497 44.0899C30.1657 44.0899 32.884 43.3483 35.2044 41.8652C37.5249 40.3146 39.3149 38.2584 40.5746 35.6966C41.8343 33.1348 42.4641 30.236 42.4641 27C42.4641 23.8315 41.8343 20.9663 40.5746 18.4045C39.3149 15.7753 37.5249 13.7191 35.2044 12.236C32.884 10.6854 30.1657 9.91011 27.0497 9.91011C23.8674 9.91011 21.116 10.6854 18.7956 12.236C16.5414 13.7191 14.7514 15.7416 13.4254 18.3034C12.1657 20.8652 11.5359 23.764 11.5359 27C11.5359 30.1685 12.1657 33.0674 13.4254 35.6966C14.7514 38.2584 16.5414 40.3146 18.7956 41.8652C21.116 43.3483 23.8674 44.0899 27.0497 44.0899Z" fill="white"/>
</svg>
