<svg width="24" height="24" viewBox="0 0 24 24" fill="none" xmlns="http://www.w3.org/2000/svg">
<path d="M21.2099 15.89C20.5737 17.3945 19.5787 18.7202 18.3118 19.7513C17.0449 20.7824 15.5447 21.4874 13.9424 21.8048C12.34 22.1221 10.6843 22.0421 9.12006 21.5718C7.55578 21.1014 6.13054 20.2551 4.96893 19.1067C3.80733 17.9582 2.94473 16.5427 2.45655 14.9839C1.96837 13.4251 1.86948 11.7705 2.16851 10.1646C2.46755 8.55878 3.15541 7.05062 4.17196 5.77203C5.18851 4.49343 6.5028 3.48331 7.99992 2.83M20.9999 12C21.5519 12 22.0049 11.551 21.9499 11.002C21.7194 8.70617 20.702 6.5607 19.0702 4.92932C17.4385 3.29794 15.2928 2.28103 12.9969 2.051C12.4469 1.996 11.9989 2.449 11.9989 3.001V11.001C11.9989 11.2662 12.1043 11.5206 12.2918 11.7081C12.4793 11.8956 12.7337 12.001 12.9989 12.001L20.9999 12Z" stroke="#16FF8E" stroke-width="2" stroke-linecap="round" stroke-linejoin="round"/>
</svg>
