<svg width="24" height="24" viewBox="0 0 24 24" fill="none" xmlns="http://www.w3.org/2000/svg">
<path d="M3.99999 14C3.81076 14.0007 3.62522 13.9476 3.46495 13.847C3.30467 13.7464 3.17623 13.6024 3.09454 13.4317C3.01286 13.261 2.98129 13.0706 3.00349 12.8827C3.0257 12.6947 3.10077 12.517 3.21999 12.37L13.12 2.17001C13.1943 2.08429 13.2955 2.02637 13.407 2.00574C13.5185 1.98512 13.6337 2.00302 13.7337 2.05651C13.8337 2.11001 13.9126 2.19591 13.9573 2.30012C14.0021 2.40433 14.0101 2.52066 13.98 2.63001L12.06 8.65001C12.0034 8.80153 11.9844 8.96453 12.0046 9.12502C12.0248 9.2855 12.0837 9.43869 12.1761 9.57144C12.2685 9.70418 12.3918 9.81252 12.5353 9.88717C12.6788 9.96182 12.8382 10.0005 13 10H20C20.1892 9.99936 20.3748 10.0524 20.535 10.153C20.6953 10.2536 20.8238 10.3977 20.9054 10.5684C20.9871 10.7391 21.0187 10.9294 20.9965 11.1174C20.9743 11.3053 20.8992 11.4831 20.78 11.63L10.88 21.83C10.8057 21.9157 10.7045 21.9737 10.593 21.9943C10.4815 22.0149 10.3663 21.997 10.2663 21.9435C10.1663 21.89 10.0874 21.8041 10.0427 21.6999C9.99791 21.5957 9.98991 21.4794 10.02 21.37L11.94 15.35C11.9966 15.1985 12.0156 15.0355 11.9954 14.875C11.9752 14.7145 11.9163 14.5613 11.8239 14.4286C11.7315 14.2958 11.6082 14.1875 11.4647 14.1129C11.3212 14.0382 11.1617 13.9995 11 14H3.99999Z" stroke="#16FF8E" stroke-width="1.33333" stroke-linecap="round" stroke-linejoin="round"/>
</svg>
