<svg width="23" height="23" viewBox="0 0 23 23" fill="none" xmlns="http://www.w3.org/2000/svg">
<path d="M11.4907 4.76312C11.5366 4.76313 17.4808 4.76444 18.9624 5.1684C19.3686 5.27833 19.7391 5.49292 20.0366 5.79047C20.3342 6.08803 20.5488 6.45849 20.6587 6.86469C21.2916 9.41231 21.1448 13.4365 20.6704 16.0825C20.5604 16.4885 20.3458 16.8583 20.0483 17.1557C19.7509 17.4531 19.3811 17.6678 18.9751 17.7778C17.4881 18.1833 11.5024 18.183 11.5024 18.183C11.4611 18.183 5.51304 18.1819 4.03076 17.7778C3.62457 17.6678 3.25409 17.4533 2.95654 17.1557C2.65916 16.8583 2.44441 16.4884 2.33447 16.0825C1.69786 13.546 1.87202 9.51962 2.32178 6.87738C2.43165 6.47127 2.64642 6.1007 2.94385 5.80316C3.24138 5.5056 3.61189 5.29104 4.01807 5.18109C5.50514 4.77553 11.4907 4.76312 11.4907 4.76312ZM9.58545 14.3491L14.5503 11.4731L9.58545 8.59711V14.3491Z" fill="#FF0000"/>
</svg>
